%TF.GenerationSoftware,KiCad,Pcbnew,9.0.7*%
%TF.CreationDate,2026-05-02T16:38:01+07:00*%
%TF.ProjectId,designspace,64657369-676e-4737-9061-63652e6b6963,rev?*%
%TF.SameCoordinates,Original*%
%TF.FileFunction,Drillmap*%
%TF.FilePolarity,Positive*%
%FSLAX45Y45*%
G04 Gerber Fmt 4.5, Leading zero omitted, Abs format (unit mm)*
G04 Created by KiCad (PCBNEW 9.0.7) date 2026-05-02 16:38:01*
%MOMM*%
%LPD*%
G01*
G04 APERTURE LIST*
%ADD10C,0.050000*%
%ADD11C,0.200000*%
%ADD12C,0.100000*%
%ADD13C,0.102000*%
%ADD14C,0.106000*%
G04 APERTURE END LIST*
D10*
X4200000Y-5800000D02*
X11600000Y-5800000D01*
X11600000Y-11600000D01*
X4200000Y-11600000D01*
X4200000Y-5800000D01*
D11*
D12*
X4905000Y-6625000D02*
X4935000Y-6655000D01*
X4935000Y-6625000D02*
X4905000Y-6655000D01*
X5060000Y-6910000D02*
X5090000Y-6940000D01*
X5090000Y-6910000D02*
X5060000Y-6940000D01*
X5358440Y-8285000D02*
X5388440Y-8315000D01*
X5388440Y-8285000D02*
X5358440Y-8315000D01*
X5458440Y-6785000D02*
X5488440Y-6815000D01*
X5488440Y-6785000D02*
X5458440Y-6815000D01*
X5558440Y-8547000D02*
X5588440Y-8577000D01*
X5588440Y-8547000D02*
X5558440Y-8577000D01*
X5660000Y-8860000D02*
X5690000Y-8890000D01*
X5690000Y-8860000D02*
X5660000Y-8890000D01*
X5758440Y-7880000D02*
X5788440Y-7910000D01*
X5788440Y-7880000D02*
X5758440Y-7910000D01*
X5865000Y-9535000D02*
X5895000Y-9565000D01*
X5895000Y-9535000D02*
X5865000Y-9565000D01*
X6265000Y-6925000D02*
X6295000Y-6955000D01*
X6295000Y-6925000D02*
X6265000Y-6955000D01*
X6325000Y-8265000D02*
X6355000Y-8295000D01*
X6355000Y-8265000D02*
X6325000Y-8295000D01*
X6635000Y-6945000D02*
X6665000Y-6975000D01*
X6665000Y-6945000D02*
X6635000Y-6975000D01*
X6735000Y-7285000D02*
X6765000Y-7315000D01*
X6765000Y-7285000D02*
X6735000Y-7315000D01*
X6765000Y-8265000D02*
X6795000Y-8295000D01*
X6795000Y-8265000D02*
X6765000Y-8295000D01*
X7385000Y-7385000D02*
X7415000Y-7415000D01*
X7415000Y-7385000D02*
X7385000Y-7415000D01*
X7385000Y-8285000D02*
X7415000Y-8315000D01*
X7415000Y-8285000D02*
X7385000Y-8315000D01*
X7785000Y-7085000D02*
X7815000Y-7115000D01*
X7815000Y-7085000D02*
X7785000Y-7115000D01*
X7885000Y-7685000D02*
X7915000Y-7715000D01*
X7915000Y-7685000D02*
X7885000Y-7715000D01*
X7985000Y-6885000D02*
X8015000Y-6915000D01*
X8015000Y-6885000D02*
X7985000Y-6915000D01*
X9485000Y-7285000D02*
X9515000Y-7315000D01*
X9515000Y-7285000D02*
X9485000Y-7315000D01*
X9485000Y-8185000D02*
X9515000Y-8215000D01*
X9515000Y-8185000D02*
X9485000Y-8215000D01*
X10060000Y-8135000D02*
X10090000Y-8165000D01*
X10090000Y-8135000D02*
X10060000Y-8165000D01*
X10210000Y-7085000D02*
X10240000Y-7115000D01*
X10240000Y-7085000D02*
X10210000Y-7115000D01*
X5269500Y-6086000D02*
G75*
G02*
X5169500Y-6086000I-50000J0D01*
G01*
X5169500Y-6086000D02*
G75*
G02*
X5269500Y-6086000I50000J0D01*
G01*
X5269500Y-6340000D02*
G75*
G02*
X5169500Y-6340000I-50000J0D01*
G01*
X5169500Y-6340000D02*
G75*
G02*
X5269500Y-6340000I50000J0D01*
G01*
X5523500Y-6086000D02*
G75*
G02*
X5423500Y-6086000I-50000J0D01*
G01*
X5423500Y-6086000D02*
G75*
G02*
X5523500Y-6086000I50000J0D01*
G01*
X5523500Y-6340000D02*
G75*
G02*
X5423500Y-6340000I-50000J0D01*
G01*
X5423500Y-6340000D02*
G75*
G02*
X5523500Y-6340000I50000J0D01*
G01*
X5777500Y-6086000D02*
G75*
G02*
X5677500Y-6086000I-50000J0D01*
G01*
X5677500Y-6086000D02*
G75*
G02*
X5777500Y-6086000I50000J0D01*
G01*
X5777500Y-6340000D02*
G75*
G02*
X5677500Y-6340000I-50000J0D01*
G01*
X5677500Y-6340000D02*
G75*
G02*
X5777500Y-6340000I50000J0D01*
G01*
X6142000Y-6086000D02*
G75*
G02*
X6042000Y-6086000I-50000J0D01*
G01*
X6042000Y-6086000D02*
G75*
G02*
X6142000Y-6086000I50000J0D01*
G01*
X6142000Y-6340000D02*
G75*
G02*
X6042000Y-6340000I-50000J0D01*
G01*
X6042000Y-6340000D02*
G75*
G02*
X6142000Y-6340000I50000J0D01*
G01*
X6396000Y-6086000D02*
G75*
G02*
X6296000Y-6086000I-50000J0D01*
G01*
X6296000Y-6086000D02*
G75*
G02*
X6396000Y-6086000I50000J0D01*
G01*
X6396000Y-6340000D02*
G75*
G02*
X6296000Y-6340000I-50000J0D01*
G01*
X6296000Y-6340000D02*
G75*
G02*
X6396000Y-6340000I50000J0D01*
G01*
X6650000Y-6086000D02*
G75*
G02*
X6550000Y-6086000I-50000J0D01*
G01*
X6550000Y-6086000D02*
G75*
G02*
X6650000Y-6086000I50000J0D01*
G01*
X6650000Y-6340000D02*
G75*
G02*
X6550000Y-6340000I-50000J0D01*
G01*
X6550000Y-6340000D02*
G75*
G02*
X6650000Y-6340000I50000J0D01*
G01*
X7017000Y-6086000D02*
G75*
G02*
X6917000Y-6086000I-50000J0D01*
G01*
X6917000Y-6086000D02*
G75*
G02*
X7017000Y-6086000I50000J0D01*
G01*
X7017000Y-6340000D02*
G75*
G02*
X6917000Y-6340000I-50000J0D01*
G01*
X6917000Y-6340000D02*
G75*
G02*
X7017000Y-6340000I50000J0D01*
G01*
X7271000Y-6086000D02*
G75*
G02*
X7171000Y-6086000I-50000J0D01*
G01*
X7171000Y-6086000D02*
G75*
G02*
X7271000Y-6086000I50000J0D01*
G01*
X7271000Y-6340000D02*
G75*
G02*
X7171000Y-6340000I-50000J0D01*
G01*
X7171000Y-6340000D02*
G75*
G02*
X7271000Y-6340000I50000J0D01*
G01*
X7525000Y-6086000D02*
G75*
G02*
X7425000Y-6086000I-50000J0D01*
G01*
X7425000Y-6086000D02*
G75*
G02*
X7525000Y-6086000I50000J0D01*
G01*
X7525000Y-6340000D02*
G75*
G02*
X7425000Y-6340000I-50000J0D01*
G01*
X7425000Y-6340000D02*
G75*
G02*
X7525000Y-6340000I50000J0D01*
G01*
X9927500Y-7872500D02*
G75*
G02*
X9827500Y-7872500I-50000J0D01*
G01*
X9827500Y-7872500D02*
G75*
G02*
X9927500Y-7872500I50000J0D01*
G01*
X9927500Y-8126500D02*
G75*
G02*
X9827500Y-8126500I-50000J0D01*
G01*
X9827500Y-8126500D02*
G75*
G02*
X9927500Y-8126500I50000J0D01*
G01*
X9927500Y-8380500D02*
G75*
G02*
X9827500Y-8380500I-50000J0D01*
G01*
X9827500Y-8380500D02*
G75*
G02*
X9927500Y-8380500I50000J0D01*
G01*
D13*
X5538000Y-9026000D02*
X5538000Y-9128000D01*
X5487000Y-9077000D02*
X5589000Y-9077000D01*
X5538000Y-11312000D02*
X5538000Y-11414000D01*
X5487000Y-11363000D02*
X5589000Y-11363000D01*
X5792000Y-9026000D02*
X5792000Y-9128000D01*
X5741000Y-9077000D02*
X5843000Y-9077000D01*
X5792000Y-11312000D02*
X5792000Y-11414000D01*
X5741000Y-11363000D02*
X5843000Y-11363000D01*
X6046000Y-9026000D02*
X6046000Y-9128000D01*
X5995000Y-9077000D02*
X6097000Y-9077000D01*
X6046000Y-11312000D02*
X6046000Y-11414000D01*
X5995000Y-11363000D02*
X6097000Y-11363000D01*
X6300000Y-9026000D02*
X6300000Y-9128000D01*
X6249000Y-9077000D02*
X6351000Y-9077000D01*
X6300000Y-11312000D02*
X6300000Y-11414000D01*
X6249000Y-11363000D02*
X6351000Y-11363000D01*
X6554000Y-9026000D02*
X6554000Y-9128000D01*
X6503000Y-9077000D02*
X6605000Y-9077000D01*
X6554000Y-11312000D02*
X6554000Y-11414000D01*
X6503000Y-11363000D02*
X6605000Y-11363000D01*
X6808000Y-9026000D02*
X6808000Y-9128000D01*
X6757000Y-9077000D02*
X6859000Y-9077000D01*
X6808000Y-11312000D02*
X6808000Y-11414000D01*
X6757000Y-11363000D02*
X6859000Y-11363000D01*
X7062000Y-9026000D02*
X7062000Y-9128000D01*
X7011000Y-9077000D02*
X7113000Y-9077000D01*
X7062000Y-11312000D02*
X7062000Y-11414000D01*
X7011000Y-11363000D02*
X7113000Y-11363000D01*
X7316000Y-9026000D02*
X7316000Y-9128000D01*
X7265000Y-9077000D02*
X7367000Y-9077000D01*
X7316000Y-11312000D02*
X7316000Y-11414000D01*
X7265000Y-11363000D02*
X7367000Y-11363000D01*
X7570000Y-9026000D02*
X7570000Y-9128000D01*
X7519000Y-9077000D02*
X7621000Y-9077000D01*
X7570000Y-11312000D02*
X7570000Y-11414000D01*
X7519000Y-11363000D02*
X7621000Y-11363000D01*
X7824000Y-9026000D02*
X7824000Y-9128000D01*
X7773000Y-9077000D02*
X7875000Y-9077000D01*
X7824000Y-11312000D02*
X7824000Y-11414000D01*
X7773000Y-11363000D02*
X7875000Y-11363000D01*
X8078000Y-9026000D02*
X8078000Y-9128000D01*
X8027000Y-9077000D02*
X8129000Y-9077000D01*
X8078000Y-11312000D02*
X8078000Y-11414000D01*
X8027000Y-11363000D02*
X8129000Y-11363000D01*
X8332000Y-9026000D02*
X8332000Y-9128000D01*
X8281000Y-9077000D02*
X8383000Y-9077000D01*
X8332000Y-11312000D02*
X8332000Y-11414000D01*
X8281000Y-11363000D02*
X8383000Y-11363000D01*
X8586000Y-9026000D02*
X8586000Y-9128000D01*
X8535000Y-9077000D02*
X8637000Y-9077000D01*
X8586000Y-11312000D02*
X8586000Y-11414000D01*
X8535000Y-11363000D02*
X8637000Y-11363000D01*
X8840000Y-9026000D02*
X8840000Y-9128000D01*
X8789000Y-9077000D02*
X8891000Y-9077000D01*
X8840000Y-11312000D02*
X8840000Y-11414000D01*
X8789000Y-11363000D02*
X8891000Y-11363000D01*
X9094000Y-9026000D02*
X9094000Y-9128000D01*
X9043000Y-9077000D02*
X9145000Y-9077000D01*
X9094000Y-11312000D02*
X9094000Y-11414000D01*
X9043000Y-11363000D02*
X9145000Y-11363000D01*
X9348000Y-9026000D02*
X9348000Y-9128000D01*
X9297000Y-9077000D02*
X9399000Y-9077000D01*
X9348000Y-11312000D02*
X9348000Y-11414000D01*
X9297000Y-11363000D02*
X9399000Y-11363000D01*
X9602000Y-9026000D02*
X9602000Y-9128000D01*
X9551000Y-9077000D02*
X9653000Y-9077000D01*
X9602000Y-11312000D02*
X9602000Y-11414000D01*
X9551000Y-11363000D02*
X9653000Y-11363000D01*
X9856000Y-9026000D02*
X9856000Y-9128000D01*
X9805000Y-9077000D02*
X9907000Y-9077000D01*
X9856000Y-11312000D02*
X9856000Y-11414000D01*
X9805000Y-11363000D02*
X9907000Y-11363000D01*
X10110000Y-9026000D02*
X10110000Y-9128000D01*
X10059000Y-9077000D02*
X10161000Y-9077000D01*
X10110000Y-11312000D02*
X10110000Y-11414000D01*
X10059000Y-11363000D02*
X10161000Y-11363000D01*
X10364000Y-9026000D02*
X10364000Y-9128000D01*
X10313000Y-9077000D02*
X10415000Y-9077000D01*
X10364000Y-11312000D02*
X10364000Y-11414000D01*
X10313000Y-11363000D02*
X10415000Y-11363000D01*
X10618000Y-9026000D02*
X10618000Y-9128000D01*
X10567000Y-9077000D02*
X10669000Y-9077000D01*
X10618000Y-11312000D02*
X10618000Y-11414000D01*
X10567000Y-11363000D02*
X10669000Y-11363000D01*
X10872000Y-9026000D02*
X10872000Y-9128000D01*
X10821000Y-9077000D02*
X10923000Y-9077000D01*
X10872000Y-11312000D02*
X10872000Y-11414000D01*
X10821000Y-11363000D02*
X10923000Y-11363000D01*
D14*
X9962477Y-7162477D02*
X9962477Y-7087523D01*
X9887523Y-7087523D01*
X9887523Y-7162477D01*
X9962477Y-7162477D01*
X10462477Y-7162477D02*
X10462477Y-7087523D01*
X10387523Y-7087523D01*
X10387523Y-7162477D01*
X10462477Y-7162477D01*
D11*
X4458277Y-11913984D02*
X4458277Y-11713984D01*
X4458277Y-11713984D02*
X4505896Y-11713984D01*
X4505896Y-11713984D02*
X4534467Y-11723508D01*
X4534467Y-11723508D02*
X4553515Y-11742555D01*
X4553515Y-11742555D02*
X4563039Y-11761603D01*
X4563039Y-11761603D02*
X4572563Y-11799698D01*
X4572563Y-11799698D02*
X4572563Y-11828269D01*
X4572563Y-11828269D02*
X4563039Y-11866365D01*
X4563039Y-11866365D02*
X4553515Y-11885412D01*
X4553515Y-11885412D02*
X4534467Y-11904460D01*
X4534467Y-11904460D02*
X4505896Y-11913984D01*
X4505896Y-11913984D02*
X4458277Y-11913984D01*
X4658277Y-11913984D02*
X4658277Y-11780650D01*
X4658277Y-11818746D02*
X4667801Y-11799698D01*
X4667801Y-11799698D02*
X4677324Y-11790174D01*
X4677324Y-11790174D02*
X4696372Y-11780650D01*
X4696372Y-11780650D02*
X4715420Y-11780650D01*
X4782086Y-11913984D02*
X4782086Y-11780650D01*
X4782086Y-11713984D02*
X4772563Y-11723508D01*
X4772563Y-11723508D02*
X4782086Y-11733031D01*
X4782086Y-11733031D02*
X4791610Y-11723508D01*
X4791610Y-11723508D02*
X4782086Y-11713984D01*
X4782086Y-11713984D02*
X4782086Y-11733031D01*
X4905896Y-11913984D02*
X4886848Y-11904460D01*
X4886848Y-11904460D02*
X4877324Y-11885412D01*
X4877324Y-11885412D02*
X4877324Y-11713984D01*
X5010658Y-11913984D02*
X4991610Y-11904460D01*
X4991610Y-11904460D02*
X4982086Y-11885412D01*
X4982086Y-11885412D02*
X4982086Y-11713984D01*
X5239229Y-11913984D02*
X5239229Y-11713984D01*
X5239229Y-11713984D02*
X5305896Y-11856841D01*
X5305896Y-11856841D02*
X5372563Y-11713984D01*
X5372563Y-11713984D02*
X5372563Y-11913984D01*
X5553515Y-11913984D02*
X5553515Y-11809222D01*
X5553515Y-11809222D02*
X5543991Y-11790174D01*
X5543991Y-11790174D02*
X5524944Y-11780650D01*
X5524944Y-11780650D02*
X5486848Y-11780650D01*
X5486848Y-11780650D02*
X5467801Y-11790174D01*
X5553515Y-11904460D02*
X5534467Y-11913984D01*
X5534467Y-11913984D02*
X5486848Y-11913984D01*
X5486848Y-11913984D02*
X5467801Y-11904460D01*
X5467801Y-11904460D02*
X5458277Y-11885412D01*
X5458277Y-11885412D02*
X5458277Y-11866365D01*
X5458277Y-11866365D02*
X5467801Y-11847317D01*
X5467801Y-11847317D02*
X5486848Y-11837793D01*
X5486848Y-11837793D02*
X5534467Y-11837793D01*
X5534467Y-11837793D02*
X5553515Y-11828269D01*
X5648753Y-11780650D02*
X5648753Y-11980650D01*
X5648753Y-11790174D02*
X5667801Y-11780650D01*
X5667801Y-11780650D02*
X5705896Y-11780650D01*
X5705896Y-11780650D02*
X5724943Y-11790174D01*
X5724943Y-11790174D02*
X5734467Y-11799698D01*
X5734467Y-11799698D02*
X5743991Y-11818746D01*
X5743991Y-11818746D02*
X5743991Y-11875888D01*
X5743991Y-11875888D02*
X5734467Y-11894936D01*
X5734467Y-11894936D02*
X5724943Y-11904460D01*
X5724943Y-11904460D02*
X5705896Y-11913984D01*
X5705896Y-11913984D02*
X5667801Y-11913984D01*
X5667801Y-11913984D02*
X5648753Y-11904460D01*
X5829705Y-11894936D02*
X5839229Y-11904460D01*
X5839229Y-11904460D02*
X5829705Y-11913984D01*
X5829705Y-11913984D02*
X5820182Y-11904460D01*
X5820182Y-11904460D02*
X5829705Y-11894936D01*
X5829705Y-11894936D02*
X5829705Y-11913984D01*
X5829705Y-11790174D02*
X5839229Y-11799698D01*
X5839229Y-11799698D02*
X5829705Y-11809222D01*
X5829705Y-11809222D02*
X5820182Y-11799698D01*
X5820182Y-11799698D02*
X5829705Y-11790174D01*
X5829705Y-11790174D02*
X5829705Y-11809222D01*
D12*
X4167500Y-12227500D02*
X4197500Y-12257500D01*
X4197500Y-12227500D02*
X4167500Y-12257500D01*
D11*
X4496372Y-12133984D02*
X4515420Y-12133984D01*
X4515420Y-12133984D02*
X4534467Y-12143508D01*
X4534467Y-12143508D02*
X4543991Y-12153031D01*
X4543991Y-12153031D02*
X4553515Y-12172079D01*
X4553515Y-12172079D02*
X4563039Y-12210174D01*
X4563039Y-12210174D02*
X4563039Y-12257793D01*
X4563039Y-12257793D02*
X4553515Y-12295888D01*
X4553515Y-12295888D02*
X4543991Y-12314936D01*
X4543991Y-12314936D02*
X4534467Y-12324460D01*
X4534467Y-12324460D02*
X4515420Y-12333984D01*
X4515420Y-12333984D02*
X4496372Y-12333984D01*
X4496372Y-12333984D02*
X4477324Y-12324460D01*
X4477324Y-12324460D02*
X4467801Y-12314936D01*
X4467801Y-12314936D02*
X4458277Y-12295888D01*
X4458277Y-12295888D02*
X4448753Y-12257793D01*
X4448753Y-12257793D02*
X4448753Y-12210174D01*
X4448753Y-12210174D02*
X4458277Y-12172079D01*
X4458277Y-12172079D02*
X4467801Y-12153031D01*
X4467801Y-12153031D02*
X4477324Y-12143508D01*
X4477324Y-12143508D02*
X4496372Y-12133984D01*
X4648753Y-12314936D02*
X4658277Y-12324460D01*
X4658277Y-12324460D02*
X4648753Y-12333984D01*
X4648753Y-12333984D02*
X4639229Y-12324460D01*
X4639229Y-12324460D02*
X4648753Y-12314936D01*
X4648753Y-12314936D02*
X4648753Y-12333984D01*
X4724944Y-12133984D02*
X4848753Y-12133984D01*
X4848753Y-12133984D02*
X4782086Y-12210174D01*
X4782086Y-12210174D02*
X4810658Y-12210174D01*
X4810658Y-12210174D02*
X4829705Y-12219698D01*
X4829705Y-12219698D02*
X4839229Y-12229222D01*
X4839229Y-12229222D02*
X4848753Y-12248269D01*
X4848753Y-12248269D02*
X4848753Y-12295888D01*
X4848753Y-12295888D02*
X4839229Y-12314936D01*
X4839229Y-12314936D02*
X4829705Y-12324460D01*
X4829705Y-12324460D02*
X4810658Y-12333984D01*
X4810658Y-12333984D02*
X4753515Y-12333984D01*
X4753515Y-12333984D02*
X4734467Y-12324460D01*
X4734467Y-12324460D02*
X4724944Y-12314936D01*
X4972563Y-12133984D02*
X4991610Y-12133984D01*
X4991610Y-12133984D02*
X5010658Y-12143508D01*
X5010658Y-12143508D02*
X5020182Y-12153031D01*
X5020182Y-12153031D02*
X5029705Y-12172079D01*
X5029705Y-12172079D02*
X5039229Y-12210174D01*
X5039229Y-12210174D02*
X5039229Y-12257793D01*
X5039229Y-12257793D02*
X5029705Y-12295888D01*
X5029705Y-12295888D02*
X5020182Y-12314936D01*
X5020182Y-12314936D02*
X5010658Y-12324460D01*
X5010658Y-12324460D02*
X4991610Y-12333984D01*
X4991610Y-12333984D02*
X4972563Y-12333984D01*
X4972563Y-12333984D02*
X4953515Y-12324460D01*
X4953515Y-12324460D02*
X4943991Y-12314936D01*
X4943991Y-12314936D02*
X4934467Y-12295888D01*
X4934467Y-12295888D02*
X4924944Y-12257793D01*
X4924944Y-12257793D02*
X4924944Y-12210174D01*
X4924944Y-12210174D02*
X4934467Y-12172079D01*
X4934467Y-12172079D02*
X4943991Y-12153031D01*
X4943991Y-12153031D02*
X4953515Y-12143508D01*
X4953515Y-12143508D02*
X4972563Y-12133984D01*
X5163039Y-12133984D02*
X5182086Y-12133984D01*
X5182086Y-12133984D02*
X5201134Y-12143508D01*
X5201134Y-12143508D02*
X5210658Y-12153031D01*
X5210658Y-12153031D02*
X5220182Y-12172079D01*
X5220182Y-12172079D02*
X5229705Y-12210174D01*
X5229705Y-12210174D02*
X5229705Y-12257793D01*
X5229705Y-12257793D02*
X5220182Y-12295888D01*
X5220182Y-12295888D02*
X5210658Y-12314936D01*
X5210658Y-12314936D02*
X5201134Y-12324460D01*
X5201134Y-12324460D02*
X5182086Y-12333984D01*
X5182086Y-12333984D02*
X5163039Y-12333984D01*
X5163039Y-12333984D02*
X5143991Y-12324460D01*
X5143991Y-12324460D02*
X5134467Y-12314936D01*
X5134467Y-12314936D02*
X5124944Y-12295888D01*
X5124944Y-12295888D02*
X5115420Y-12257793D01*
X5115420Y-12257793D02*
X5115420Y-12210174D01*
X5115420Y-12210174D02*
X5124944Y-12172079D01*
X5124944Y-12172079D02*
X5134467Y-12153031D01*
X5134467Y-12153031D02*
X5143991Y-12143508D01*
X5143991Y-12143508D02*
X5163039Y-12133984D01*
X5315420Y-12333984D02*
X5315420Y-12200650D01*
X5315420Y-12219698D02*
X5324944Y-12210174D01*
X5324944Y-12210174D02*
X5343991Y-12200650D01*
X5343991Y-12200650D02*
X5372563Y-12200650D01*
X5372563Y-12200650D02*
X5391610Y-12210174D01*
X5391610Y-12210174D02*
X5401134Y-12229222D01*
X5401134Y-12229222D02*
X5401134Y-12333984D01*
X5401134Y-12229222D02*
X5410658Y-12210174D01*
X5410658Y-12210174D02*
X5429705Y-12200650D01*
X5429705Y-12200650D02*
X5458277Y-12200650D01*
X5458277Y-12200650D02*
X5477325Y-12210174D01*
X5477325Y-12210174D02*
X5486848Y-12229222D01*
X5486848Y-12229222D02*
X5486848Y-12333984D01*
X5582086Y-12333984D02*
X5582086Y-12200650D01*
X5582086Y-12219698D02*
X5591610Y-12210174D01*
X5591610Y-12210174D02*
X5610658Y-12200650D01*
X5610658Y-12200650D02*
X5639229Y-12200650D01*
X5639229Y-12200650D02*
X5658277Y-12210174D01*
X5658277Y-12210174D02*
X5667801Y-12229222D01*
X5667801Y-12229222D02*
X5667801Y-12333984D01*
X5667801Y-12229222D02*
X5677324Y-12210174D01*
X5677324Y-12210174D02*
X5696372Y-12200650D01*
X5696372Y-12200650D02*
X5724943Y-12200650D01*
X5724943Y-12200650D02*
X5743991Y-12210174D01*
X5743991Y-12210174D02*
X5753515Y-12229222D01*
X5753515Y-12229222D02*
X5753515Y-12333984D01*
X6143991Y-12124460D02*
X5972563Y-12381603D01*
X6401134Y-12133984D02*
X6420182Y-12133984D01*
X6420182Y-12133984D02*
X6439229Y-12143508D01*
X6439229Y-12143508D02*
X6448753Y-12153031D01*
X6448753Y-12153031D02*
X6458277Y-12172079D01*
X6458277Y-12172079D02*
X6467801Y-12210174D01*
X6467801Y-12210174D02*
X6467801Y-12257793D01*
X6467801Y-12257793D02*
X6458277Y-12295888D01*
X6458277Y-12295888D02*
X6448753Y-12314936D01*
X6448753Y-12314936D02*
X6439229Y-12324460D01*
X6439229Y-12324460D02*
X6420182Y-12333984D01*
X6420182Y-12333984D02*
X6401134Y-12333984D01*
X6401134Y-12333984D02*
X6382086Y-12324460D01*
X6382086Y-12324460D02*
X6372563Y-12314936D01*
X6372563Y-12314936D02*
X6363039Y-12295888D01*
X6363039Y-12295888D02*
X6353515Y-12257793D01*
X6353515Y-12257793D02*
X6353515Y-12210174D01*
X6353515Y-12210174D02*
X6363039Y-12172079D01*
X6363039Y-12172079D02*
X6372563Y-12153031D01*
X6372563Y-12153031D02*
X6382086Y-12143508D01*
X6382086Y-12143508D02*
X6401134Y-12133984D01*
X6553515Y-12314936D02*
X6563039Y-12324460D01*
X6563039Y-12324460D02*
X6553515Y-12333984D01*
X6553515Y-12333984D02*
X6543991Y-12324460D01*
X6543991Y-12324460D02*
X6553515Y-12314936D01*
X6553515Y-12314936D02*
X6553515Y-12333984D01*
X6686848Y-12133984D02*
X6705896Y-12133984D01*
X6705896Y-12133984D02*
X6724944Y-12143508D01*
X6724944Y-12143508D02*
X6734467Y-12153031D01*
X6734467Y-12153031D02*
X6743991Y-12172079D01*
X6743991Y-12172079D02*
X6753515Y-12210174D01*
X6753515Y-12210174D02*
X6753515Y-12257793D01*
X6753515Y-12257793D02*
X6743991Y-12295888D01*
X6743991Y-12295888D02*
X6734467Y-12314936D01*
X6734467Y-12314936D02*
X6724944Y-12324460D01*
X6724944Y-12324460D02*
X6705896Y-12333984D01*
X6705896Y-12333984D02*
X6686848Y-12333984D01*
X6686848Y-12333984D02*
X6667801Y-12324460D01*
X6667801Y-12324460D02*
X6658277Y-12314936D01*
X6658277Y-12314936D02*
X6648753Y-12295888D01*
X6648753Y-12295888D02*
X6639229Y-12257793D01*
X6639229Y-12257793D02*
X6639229Y-12210174D01*
X6639229Y-12210174D02*
X6648753Y-12172079D01*
X6648753Y-12172079D02*
X6658277Y-12153031D01*
X6658277Y-12153031D02*
X6667801Y-12143508D01*
X6667801Y-12143508D02*
X6686848Y-12133984D01*
X6943991Y-12333984D02*
X6829706Y-12333984D01*
X6886848Y-12333984D02*
X6886848Y-12133984D01*
X6886848Y-12133984D02*
X6867801Y-12162555D01*
X6867801Y-12162555D02*
X6848753Y-12181603D01*
X6848753Y-12181603D02*
X6829706Y-12191127D01*
X7134467Y-12333984D02*
X7020182Y-12333984D01*
X7077325Y-12333984D02*
X7077325Y-12133984D01*
X7077325Y-12133984D02*
X7058277Y-12162555D01*
X7058277Y-12162555D02*
X7039229Y-12181603D01*
X7039229Y-12181603D02*
X7020182Y-12191127D01*
X7248753Y-12219698D02*
X7229706Y-12210174D01*
X7229706Y-12210174D02*
X7220182Y-12200650D01*
X7220182Y-12200650D02*
X7210658Y-12181603D01*
X7210658Y-12181603D02*
X7210658Y-12172079D01*
X7210658Y-12172079D02*
X7220182Y-12153031D01*
X7220182Y-12153031D02*
X7229706Y-12143508D01*
X7229706Y-12143508D02*
X7248753Y-12133984D01*
X7248753Y-12133984D02*
X7286848Y-12133984D01*
X7286848Y-12133984D02*
X7305896Y-12143508D01*
X7305896Y-12143508D02*
X7315420Y-12153031D01*
X7315420Y-12153031D02*
X7324944Y-12172079D01*
X7324944Y-12172079D02*
X7324944Y-12181603D01*
X7324944Y-12181603D02*
X7315420Y-12200650D01*
X7315420Y-12200650D02*
X7305896Y-12210174D01*
X7305896Y-12210174D02*
X7286848Y-12219698D01*
X7286848Y-12219698D02*
X7248753Y-12219698D01*
X7248753Y-12219698D02*
X7229706Y-12229222D01*
X7229706Y-12229222D02*
X7220182Y-12238746D01*
X7220182Y-12238746D02*
X7210658Y-12257793D01*
X7210658Y-12257793D02*
X7210658Y-12295888D01*
X7210658Y-12295888D02*
X7220182Y-12314936D01*
X7220182Y-12314936D02*
X7229706Y-12324460D01*
X7229706Y-12324460D02*
X7248753Y-12333984D01*
X7248753Y-12333984D02*
X7286848Y-12333984D01*
X7286848Y-12333984D02*
X7305896Y-12324460D01*
X7305896Y-12324460D02*
X7315420Y-12314936D01*
X7315420Y-12314936D02*
X7324944Y-12295888D01*
X7324944Y-12295888D02*
X7324944Y-12257793D01*
X7324944Y-12257793D02*
X7315420Y-12238746D01*
X7315420Y-12238746D02*
X7305896Y-12229222D01*
X7305896Y-12229222D02*
X7286848Y-12219698D01*
X7401134Y-12133984D02*
X7401134Y-12172079D01*
X7477325Y-12133984D02*
X7477325Y-12172079D01*
X7772563Y-12410174D02*
X7763039Y-12400650D01*
X7763039Y-12400650D02*
X7743991Y-12372079D01*
X7743991Y-12372079D02*
X7734468Y-12353031D01*
X7734468Y-12353031D02*
X7724944Y-12324460D01*
X7724944Y-12324460D02*
X7715420Y-12276841D01*
X7715420Y-12276841D02*
X7715420Y-12238746D01*
X7715420Y-12238746D02*
X7724944Y-12191127D01*
X7724944Y-12191127D02*
X7734468Y-12162555D01*
X7734468Y-12162555D02*
X7743991Y-12143508D01*
X7743991Y-12143508D02*
X7763039Y-12114936D01*
X7763039Y-12114936D02*
X7772563Y-12105412D01*
X7839229Y-12153031D02*
X7848753Y-12143508D01*
X7848753Y-12143508D02*
X7867801Y-12133984D01*
X7867801Y-12133984D02*
X7915420Y-12133984D01*
X7915420Y-12133984D02*
X7934468Y-12143508D01*
X7934468Y-12143508D02*
X7943991Y-12153031D01*
X7943991Y-12153031D02*
X7953515Y-12172079D01*
X7953515Y-12172079D02*
X7953515Y-12191127D01*
X7953515Y-12191127D02*
X7943991Y-12219698D01*
X7943991Y-12219698D02*
X7829706Y-12333984D01*
X7829706Y-12333984D02*
X7953515Y-12333984D01*
X8029706Y-12153031D02*
X8039229Y-12143508D01*
X8039229Y-12143508D02*
X8058277Y-12133984D01*
X8058277Y-12133984D02*
X8105896Y-12133984D01*
X8105896Y-12133984D02*
X8124944Y-12143508D01*
X8124944Y-12143508D02*
X8134468Y-12153031D01*
X8134468Y-12153031D02*
X8143991Y-12172079D01*
X8143991Y-12172079D02*
X8143991Y-12191127D01*
X8143991Y-12191127D02*
X8134468Y-12219698D01*
X8134468Y-12219698D02*
X8020182Y-12333984D01*
X8020182Y-12333984D02*
X8143991Y-12333984D01*
X8382087Y-12333984D02*
X8382087Y-12133984D01*
X8467801Y-12333984D02*
X8467801Y-12229222D01*
X8467801Y-12229222D02*
X8458277Y-12210174D01*
X8458277Y-12210174D02*
X8439230Y-12200650D01*
X8439230Y-12200650D02*
X8410658Y-12200650D01*
X8410658Y-12200650D02*
X8391611Y-12210174D01*
X8391611Y-12210174D02*
X8382087Y-12219698D01*
X8591611Y-12333984D02*
X8572563Y-12324460D01*
X8572563Y-12324460D02*
X8563039Y-12314936D01*
X8563039Y-12314936D02*
X8553515Y-12295888D01*
X8553515Y-12295888D02*
X8553515Y-12238746D01*
X8553515Y-12238746D02*
X8563039Y-12219698D01*
X8563039Y-12219698D02*
X8572563Y-12210174D01*
X8572563Y-12210174D02*
X8591611Y-12200650D01*
X8591611Y-12200650D02*
X8620182Y-12200650D01*
X8620182Y-12200650D02*
X8639230Y-12210174D01*
X8639230Y-12210174D02*
X8648753Y-12219698D01*
X8648753Y-12219698D02*
X8658277Y-12238746D01*
X8658277Y-12238746D02*
X8658277Y-12295888D01*
X8658277Y-12295888D02*
X8648753Y-12314936D01*
X8648753Y-12314936D02*
X8639230Y-12324460D01*
X8639230Y-12324460D02*
X8620182Y-12333984D01*
X8620182Y-12333984D02*
X8591611Y-12333984D01*
X8772563Y-12333984D02*
X8753515Y-12324460D01*
X8753515Y-12324460D02*
X8743992Y-12305412D01*
X8743992Y-12305412D02*
X8743992Y-12133984D01*
X8924944Y-12324460D02*
X8905896Y-12333984D01*
X8905896Y-12333984D02*
X8867801Y-12333984D01*
X8867801Y-12333984D02*
X8848753Y-12324460D01*
X8848753Y-12324460D02*
X8839230Y-12305412D01*
X8839230Y-12305412D02*
X8839230Y-12229222D01*
X8839230Y-12229222D02*
X8848753Y-12210174D01*
X8848753Y-12210174D02*
X8867801Y-12200650D01*
X8867801Y-12200650D02*
X8905896Y-12200650D01*
X8905896Y-12200650D02*
X8924944Y-12210174D01*
X8924944Y-12210174D02*
X8934468Y-12229222D01*
X8934468Y-12229222D02*
X8934468Y-12248269D01*
X8934468Y-12248269D02*
X8839230Y-12267317D01*
X9010658Y-12324460D02*
X9029706Y-12333984D01*
X9029706Y-12333984D02*
X9067801Y-12333984D01*
X9067801Y-12333984D02*
X9086849Y-12324460D01*
X9086849Y-12324460D02*
X9096373Y-12305412D01*
X9096373Y-12305412D02*
X9096373Y-12295888D01*
X9096373Y-12295888D02*
X9086849Y-12276841D01*
X9086849Y-12276841D02*
X9067801Y-12267317D01*
X9067801Y-12267317D02*
X9039230Y-12267317D01*
X9039230Y-12267317D02*
X9020182Y-12257793D01*
X9020182Y-12257793D02*
X9010658Y-12238746D01*
X9010658Y-12238746D02*
X9010658Y-12229222D01*
X9010658Y-12229222D02*
X9020182Y-12210174D01*
X9020182Y-12210174D02*
X9039230Y-12200650D01*
X9039230Y-12200650D02*
X9067801Y-12200650D01*
X9067801Y-12200650D02*
X9086849Y-12210174D01*
X9163039Y-12410174D02*
X9172563Y-12400650D01*
X9172563Y-12400650D02*
X9191611Y-12372079D01*
X9191611Y-12372079D02*
X9201134Y-12353031D01*
X9201134Y-12353031D02*
X9210658Y-12324460D01*
X9210658Y-12324460D02*
X9220182Y-12276841D01*
X9220182Y-12276841D02*
X9220182Y-12238746D01*
X9220182Y-12238746D02*
X9210658Y-12191127D01*
X9210658Y-12191127D02*
X9201134Y-12162555D01*
X9201134Y-12162555D02*
X9191611Y-12143508D01*
X9191611Y-12143508D02*
X9172563Y-12114936D01*
X9172563Y-12114936D02*
X9163039Y-12105412D01*
D12*
X4197500Y-12506500D02*
G75*
G02*
X4097500Y-12506500I-50000J0D01*
G01*
X4097500Y-12506500D02*
G75*
G02*
X4197500Y-12506500I50000J0D01*
G01*
D11*
X4563039Y-12597984D02*
X4448753Y-12597984D01*
X4505896Y-12597984D02*
X4505896Y-12397984D01*
X4505896Y-12397984D02*
X4486848Y-12426555D01*
X4486848Y-12426555D02*
X4467801Y-12445603D01*
X4467801Y-12445603D02*
X4448753Y-12455127D01*
X4648753Y-12578936D02*
X4658277Y-12588460D01*
X4658277Y-12588460D02*
X4648753Y-12597984D01*
X4648753Y-12597984D02*
X4639229Y-12588460D01*
X4639229Y-12588460D02*
X4648753Y-12578936D01*
X4648753Y-12578936D02*
X4648753Y-12597984D01*
X4782086Y-12397984D02*
X4801134Y-12397984D01*
X4801134Y-12397984D02*
X4820182Y-12407508D01*
X4820182Y-12407508D02*
X4829705Y-12417031D01*
X4829705Y-12417031D02*
X4839229Y-12436079D01*
X4839229Y-12436079D02*
X4848753Y-12474174D01*
X4848753Y-12474174D02*
X4848753Y-12521793D01*
X4848753Y-12521793D02*
X4839229Y-12559888D01*
X4839229Y-12559888D02*
X4829705Y-12578936D01*
X4829705Y-12578936D02*
X4820182Y-12588460D01*
X4820182Y-12588460D02*
X4801134Y-12597984D01*
X4801134Y-12597984D02*
X4782086Y-12597984D01*
X4782086Y-12597984D02*
X4763039Y-12588460D01*
X4763039Y-12588460D02*
X4753515Y-12578936D01*
X4753515Y-12578936D02*
X4743991Y-12559888D01*
X4743991Y-12559888D02*
X4734467Y-12521793D01*
X4734467Y-12521793D02*
X4734467Y-12474174D01*
X4734467Y-12474174D02*
X4743991Y-12436079D01*
X4743991Y-12436079D02*
X4753515Y-12417031D01*
X4753515Y-12417031D02*
X4763039Y-12407508D01*
X4763039Y-12407508D02*
X4782086Y-12397984D01*
X4972563Y-12397984D02*
X4991610Y-12397984D01*
X4991610Y-12397984D02*
X5010658Y-12407508D01*
X5010658Y-12407508D02*
X5020182Y-12417031D01*
X5020182Y-12417031D02*
X5029705Y-12436079D01*
X5029705Y-12436079D02*
X5039229Y-12474174D01*
X5039229Y-12474174D02*
X5039229Y-12521793D01*
X5039229Y-12521793D02*
X5029705Y-12559888D01*
X5029705Y-12559888D02*
X5020182Y-12578936D01*
X5020182Y-12578936D02*
X5010658Y-12588460D01*
X5010658Y-12588460D02*
X4991610Y-12597984D01*
X4991610Y-12597984D02*
X4972563Y-12597984D01*
X4972563Y-12597984D02*
X4953515Y-12588460D01*
X4953515Y-12588460D02*
X4943991Y-12578936D01*
X4943991Y-12578936D02*
X4934467Y-12559888D01*
X4934467Y-12559888D02*
X4924944Y-12521793D01*
X4924944Y-12521793D02*
X4924944Y-12474174D01*
X4924944Y-12474174D02*
X4934467Y-12436079D01*
X4934467Y-12436079D02*
X4943991Y-12417031D01*
X4943991Y-12417031D02*
X4953515Y-12407508D01*
X4953515Y-12407508D02*
X4972563Y-12397984D01*
X5163039Y-12397984D02*
X5182086Y-12397984D01*
X5182086Y-12397984D02*
X5201134Y-12407508D01*
X5201134Y-12407508D02*
X5210658Y-12417031D01*
X5210658Y-12417031D02*
X5220182Y-12436079D01*
X5220182Y-12436079D02*
X5229705Y-12474174D01*
X5229705Y-12474174D02*
X5229705Y-12521793D01*
X5229705Y-12521793D02*
X5220182Y-12559888D01*
X5220182Y-12559888D02*
X5210658Y-12578936D01*
X5210658Y-12578936D02*
X5201134Y-12588460D01*
X5201134Y-12588460D02*
X5182086Y-12597984D01*
X5182086Y-12597984D02*
X5163039Y-12597984D01*
X5163039Y-12597984D02*
X5143991Y-12588460D01*
X5143991Y-12588460D02*
X5134467Y-12578936D01*
X5134467Y-12578936D02*
X5124944Y-12559888D01*
X5124944Y-12559888D02*
X5115420Y-12521793D01*
X5115420Y-12521793D02*
X5115420Y-12474174D01*
X5115420Y-12474174D02*
X5124944Y-12436079D01*
X5124944Y-12436079D02*
X5134467Y-12417031D01*
X5134467Y-12417031D02*
X5143991Y-12407508D01*
X5143991Y-12407508D02*
X5163039Y-12397984D01*
X5315420Y-12597984D02*
X5315420Y-12464650D01*
X5315420Y-12483698D02*
X5324944Y-12474174D01*
X5324944Y-12474174D02*
X5343991Y-12464650D01*
X5343991Y-12464650D02*
X5372563Y-12464650D01*
X5372563Y-12464650D02*
X5391610Y-12474174D01*
X5391610Y-12474174D02*
X5401134Y-12493222D01*
X5401134Y-12493222D02*
X5401134Y-12597984D01*
X5401134Y-12493222D02*
X5410658Y-12474174D01*
X5410658Y-12474174D02*
X5429705Y-12464650D01*
X5429705Y-12464650D02*
X5458277Y-12464650D01*
X5458277Y-12464650D02*
X5477325Y-12474174D01*
X5477325Y-12474174D02*
X5486848Y-12493222D01*
X5486848Y-12493222D02*
X5486848Y-12597984D01*
X5582086Y-12597984D02*
X5582086Y-12464650D01*
X5582086Y-12483698D02*
X5591610Y-12474174D01*
X5591610Y-12474174D02*
X5610658Y-12464650D01*
X5610658Y-12464650D02*
X5639229Y-12464650D01*
X5639229Y-12464650D02*
X5658277Y-12474174D01*
X5658277Y-12474174D02*
X5667801Y-12493222D01*
X5667801Y-12493222D02*
X5667801Y-12597984D01*
X5667801Y-12493222D02*
X5677324Y-12474174D01*
X5677324Y-12474174D02*
X5696372Y-12464650D01*
X5696372Y-12464650D02*
X5724943Y-12464650D01*
X5724943Y-12464650D02*
X5743991Y-12474174D01*
X5743991Y-12474174D02*
X5753515Y-12493222D01*
X5753515Y-12493222D02*
X5753515Y-12597984D01*
X6143991Y-12388460D02*
X5972563Y-12645603D01*
X6401134Y-12397984D02*
X6420182Y-12397984D01*
X6420182Y-12397984D02*
X6439229Y-12407508D01*
X6439229Y-12407508D02*
X6448753Y-12417031D01*
X6448753Y-12417031D02*
X6458277Y-12436079D01*
X6458277Y-12436079D02*
X6467801Y-12474174D01*
X6467801Y-12474174D02*
X6467801Y-12521793D01*
X6467801Y-12521793D02*
X6458277Y-12559888D01*
X6458277Y-12559888D02*
X6448753Y-12578936D01*
X6448753Y-12578936D02*
X6439229Y-12588460D01*
X6439229Y-12588460D02*
X6420182Y-12597984D01*
X6420182Y-12597984D02*
X6401134Y-12597984D01*
X6401134Y-12597984D02*
X6382086Y-12588460D01*
X6382086Y-12588460D02*
X6372563Y-12578936D01*
X6372563Y-12578936D02*
X6363039Y-12559888D01*
X6363039Y-12559888D02*
X6353515Y-12521793D01*
X6353515Y-12521793D02*
X6353515Y-12474174D01*
X6353515Y-12474174D02*
X6363039Y-12436079D01*
X6363039Y-12436079D02*
X6372563Y-12417031D01*
X6372563Y-12417031D02*
X6382086Y-12407508D01*
X6382086Y-12407508D02*
X6401134Y-12397984D01*
X6553515Y-12578936D02*
X6563039Y-12588460D01*
X6563039Y-12588460D02*
X6553515Y-12597984D01*
X6553515Y-12597984D02*
X6543991Y-12588460D01*
X6543991Y-12588460D02*
X6553515Y-12578936D01*
X6553515Y-12578936D02*
X6553515Y-12597984D01*
X6686848Y-12397984D02*
X6705896Y-12397984D01*
X6705896Y-12397984D02*
X6724944Y-12407508D01*
X6724944Y-12407508D02*
X6734467Y-12417031D01*
X6734467Y-12417031D02*
X6743991Y-12436079D01*
X6743991Y-12436079D02*
X6753515Y-12474174D01*
X6753515Y-12474174D02*
X6753515Y-12521793D01*
X6753515Y-12521793D02*
X6743991Y-12559888D01*
X6743991Y-12559888D02*
X6734467Y-12578936D01*
X6734467Y-12578936D02*
X6724944Y-12588460D01*
X6724944Y-12588460D02*
X6705896Y-12597984D01*
X6705896Y-12597984D02*
X6686848Y-12597984D01*
X6686848Y-12597984D02*
X6667801Y-12588460D01*
X6667801Y-12588460D02*
X6658277Y-12578936D01*
X6658277Y-12578936D02*
X6648753Y-12559888D01*
X6648753Y-12559888D02*
X6639229Y-12521793D01*
X6639229Y-12521793D02*
X6639229Y-12474174D01*
X6639229Y-12474174D02*
X6648753Y-12436079D01*
X6648753Y-12436079D02*
X6658277Y-12417031D01*
X6658277Y-12417031D02*
X6667801Y-12407508D01*
X6667801Y-12407508D02*
X6686848Y-12397984D01*
X6820182Y-12397984D02*
X6943991Y-12397984D01*
X6943991Y-12397984D02*
X6877325Y-12474174D01*
X6877325Y-12474174D02*
X6905896Y-12474174D01*
X6905896Y-12474174D02*
X6924944Y-12483698D01*
X6924944Y-12483698D02*
X6934467Y-12493222D01*
X6934467Y-12493222D02*
X6943991Y-12512269D01*
X6943991Y-12512269D02*
X6943991Y-12559888D01*
X6943991Y-12559888D02*
X6934467Y-12578936D01*
X6934467Y-12578936D02*
X6924944Y-12588460D01*
X6924944Y-12588460D02*
X6905896Y-12597984D01*
X6905896Y-12597984D02*
X6848753Y-12597984D01*
X6848753Y-12597984D02*
X6829706Y-12588460D01*
X6829706Y-12588460D02*
X6820182Y-12578936D01*
X7039229Y-12597984D02*
X7077325Y-12597984D01*
X7077325Y-12597984D02*
X7096372Y-12588460D01*
X7096372Y-12588460D02*
X7105896Y-12578936D01*
X7105896Y-12578936D02*
X7124944Y-12550365D01*
X7124944Y-12550365D02*
X7134467Y-12512269D01*
X7134467Y-12512269D02*
X7134467Y-12436079D01*
X7134467Y-12436079D02*
X7124944Y-12417031D01*
X7124944Y-12417031D02*
X7115420Y-12407508D01*
X7115420Y-12407508D02*
X7096372Y-12397984D01*
X7096372Y-12397984D02*
X7058277Y-12397984D01*
X7058277Y-12397984D02*
X7039229Y-12407508D01*
X7039229Y-12407508D02*
X7029706Y-12417031D01*
X7029706Y-12417031D02*
X7020182Y-12436079D01*
X7020182Y-12436079D02*
X7020182Y-12483698D01*
X7020182Y-12483698D02*
X7029706Y-12502746D01*
X7029706Y-12502746D02*
X7039229Y-12512269D01*
X7039229Y-12512269D02*
X7058277Y-12521793D01*
X7058277Y-12521793D02*
X7096372Y-12521793D01*
X7096372Y-12521793D02*
X7115420Y-12512269D01*
X7115420Y-12512269D02*
X7124944Y-12502746D01*
X7124944Y-12502746D02*
X7134467Y-12483698D01*
X7305896Y-12464650D02*
X7305896Y-12597984D01*
X7258277Y-12388460D02*
X7210658Y-12531317D01*
X7210658Y-12531317D02*
X7334467Y-12531317D01*
X7401134Y-12397984D02*
X7401134Y-12436079D01*
X7477325Y-12397984D02*
X7477325Y-12436079D01*
X7772563Y-12674174D02*
X7763039Y-12664650D01*
X7763039Y-12664650D02*
X7743991Y-12636079D01*
X7743991Y-12636079D02*
X7734468Y-12617031D01*
X7734468Y-12617031D02*
X7724944Y-12588460D01*
X7724944Y-12588460D02*
X7715420Y-12540841D01*
X7715420Y-12540841D02*
X7715420Y-12502746D01*
X7715420Y-12502746D02*
X7724944Y-12455127D01*
X7724944Y-12455127D02*
X7734468Y-12426555D01*
X7734468Y-12426555D02*
X7743991Y-12407508D01*
X7743991Y-12407508D02*
X7763039Y-12378936D01*
X7763039Y-12378936D02*
X7772563Y-12369412D01*
X7839229Y-12417031D02*
X7848753Y-12407508D01*
X7848753Y-12407508D02*
X7867801Y-12397984D01*
X7867801Y-12397984D02*
X7915420Y-12397984D01*
X7915420Y-12397984D02*
X7934468Y-12407508D01*
X7934468Y-12407508D02*
X7943991Y-12417031D01*
X7943991Y-12417031D02*
X7953515Y-12436079D01*
X7953515Y-12436079D02*
X7953515Y-12455127D01*
X7953515Y-12455127D02*
X7943991Y-12483698D01*
X7943991Y-12483698D02*
X7829706Y-12597984D01*
X7829706Y-12597984D02*
X7953515Y-12597984D01*
X8143991Y-12597984D02*
X8029706Y-12597984D01*
X8086848Y-12597984D02*
X8086848Y-12397984D01*
X8086848Y-12397984D02*
X8067801Y-12426555D01*
X8067801Y-12426555D02*
X8048753Y-12445603D01*
X8048753Y-12445603D02*
X8029706Y-12455127D01*
X8382087Y-12597984D02*
X8382087Y-12397984D01*
X8467801Y-12597984D02*
X8467801Y-12493222D01*
X8467801Y-12493222D02*
X8458277Y-12474174D01*
X8458277Y-12474174D02*
X8439230Y-12464650D01*
X8439230Y-12464650D02*
X8410658Y-12464650D01*
X8410658Y-12464650D02*
X8391611Y-12474174D01*
X8391611Y-12474174D02*
X8382087Y-12483698D01*
X8591611Y-12597984D02*
X8572563Y-12588460D01*
X8572563Y-12588460D02*
X8563039Y-12578936D01*
X8563039Y-12578936D02*
X8553515Y-12559888D01*
X8553515Y-12559888D02*
X8553515Y-12502746D01*
X8553515Y-12502746D02*
X8563039Y-12483698D01*
X8563039Y-12483698D02*
X8572563Y-12474174D01*
X8572563Y-12474174D02*
X8591611Y-12464650D01*
X8591611Y-12464650D02*
X8620182Y-12464650D01*
X8620182Y-12464650D02*
X8639230Y-12474174D01*
X8639230Y-12474174D02*
X8648753Y-12483698D01*
X8648753Y-12483698D02*
X8658277Y-12502746D01*
X8658277Y-12502746D02*
X8658277Y-12559888D01*
X8658277Y-12559888D02*
X8648753Y-12578936D01*
X8648753Y-12578936D02*
X8639230Y-12588460D01*
X8639230Y-12588460D02*
X8620182Y-12597984D01*
X8620182Y-12597984D02*
X8591611Y-12597984D01*
X8772563Y-12597984D02*
X8753515Y-12588460D01*
X8753515Y-12588460D02*
X8743992Y-12569412D01*
X8743992Y-12569412D02*
X8743992Y-12397984D01*
X8924944Y-12588460D02*
X8905896Y-12597984D01*
X8905896Y-12597984D02*
X8867801Y-12597984D01*
X8867801Y-12597984D02*
X8848753Y-12588460D01*
X8848753Y-12588460D02*
X8839230Y-12569412D01*
X8839230Y-12569412D02*
X8839230Y-12493222D01*
X8839230Y-12493222D02*
X8848753Y-12474174D01*
X8848753Y-12474174D02*
X8867801Y-12464650D01*
X8867801Y-12464650D02*
X8905896Y-12464650D01*
X8905896Y-12464650D02*
X8924944Y-12474174D01*
X8924944Y-12474174D02*
X8934468Y-12493222D01*
X8934468Y-12493222D02*
X8934468Y-12512269D01*
X8934468Y-12512269D02*
X8839230Y-12531317D01*
X9010658Y-12588460D02*
X9029706Y-12597984D01*
X9029706Y-12597984D02*
X9067801Y-12597984D01*
X9067801Y-12597984D02*
X9086849Y-12588460D01*
X9086849Y-12588460D02*
X9096373Y-12569412D01*
X9096373Y-12569412D02*
X9096373Y-12559888D01*
X9096373Y-12559888D02*
X9086849Y-12540841D01*
X9086849Y-12540841D02*
X9067801Y-12531317D01*
X9067801Y-12531317D02*
X9039230Y-12531317D01*
X9039230Y-12531317D02*
X9020182Y-12521793D01*
X9020182Y-12521793D02*
X9010658Y-12502746D01*
X9010658Y-12502746D02*
X9010658Y-12493222D01*
X9010658Y-12493222D02*
X9020182Y-12474174D01*
X9020182Y-12474174D02*
X9039230Y-12464650D01*
X9039230Y-12464650D02*
X9067801Y-12464650D01*
X9067801Y-12464650D02*
X9086849Y-12474174D01*
X9163039Y-12674174D02*
X9172563Y-12664650D01*
X9172563Y-12664650D02*
X9191611Y-12636079D01*
X9191611Y-12636079D02*
X9201134Y-12617031D01*
X9201134Y-12617031D02*
X9210658Y-12588460D01*
X9210658Y-12588460D02*
X9220182Y-12540841D01*
X9220182Y-12540841D02*
X9220182Y-12502746D01*
X9220182Y-12502746D02*
X9210658Y-12455127D01*
X9210658Y-12455127D02*
X9201134Y-12426555D01*
X9201134Y-12426555D02*
X9191611Y-12407508D01*
X9191611Y-12407508D02*
X9172563Y-12378936D01*
X9172563Y-12378936D02*
X9163039Y-12369412D01*
D13*
X4146500Y-12719500D02*
X4146500Y-12821500D01*
X4095500Y-12770500D02*
X4197500Y-12770500D01*
D11*
X4563039Y-12861984D02*
X4448753Y-12861984D01*
X4505896Y-12861984D02*
X4505896Y-12661984D01*
X4505896Y-12661984D02*
X4486848Y-12690555D01*
X4486848Y-12690555D02*
X4467801Y-12709603D01*
X4467801Y-12709603D02*
X4448753Y-12719127D01*
X4648753Y-12842936D02*
X4658277Y-12852460D01*
X4658277Y-12852460D02*
X4648753Y-12861984D01*
X4648753Y-12861984D02*
X4639229Y-12852460D01*
X4639229Y-12852460D02*
X4648753Y-12842936D01*
X4648753Y-12842936D02*
X4648753Y-12861984D01*
X4782086Y-12661984D02*
X4801134Y-12661984D01*
X4801134Y-12661984D02*
X4820182Y-12671508D01*
X4820182Y-12671508D02*
X4829705Y-12681031D01*
X4829705Y-12681031D02*
X4839229Y-12700079D01*
X4839229Y-12700079D02*
X4848753Y-12738174D01*
X4848753Y-12738174D02*
X4848753Y-12785793D01*
X4848753Y-12785793D02*
X4839229Y-12823888D01*
X4839229Y-12823888D02*
X4829705Y-12842936D01*
X4829705Y-12842936D02*
X4820182Y-12852460D01*
X4820182Y-12852460D02*
X4801134Y-12861984D01*
X4801134Y-12861984D02*
X4782086Y-12861984D01*
X4782086Y-12861984D02*
X4763039Y-12852460D01*
X4763039Y-12852460D02*
X4753515Y-12842936D01*
X4753515Y-12842936D02*
X4743991Y-12823888D01*
X4743991Y-12823888D02*
X4734467Y-12785793D01*
X4734467Y-12785793D02*
X4734467Y-12738174D01*
X4734467Y-12738174D02*
X4743991Y-12700079D01*
X4743991Y-12700079D02*
X4753515Y-12681031D01*
X4753515Y-12681031D02*
X4763039Y-12671508D01*
X4763039Y-12671508D02*
X4782086Y-12661984D01*
X4924944Y-12681031D02*
X4934467Y-12671508D01*
X4934467Y-12671508D02*
X4953515Y-12661984D01*
X4953515Y-12661984D02*
X5001134Y-12661984D01*
X5001134Y-12661984D02*
X5020182Y-12671508D01*
X5020182Y-12671508D02*
X5029705Y-12681031D01*
X5029705Y-12681031D02*
X5039229Y-12700079D01*
X5039229Y-12700079D02*
X5039229Y-12719127D01*
X5039229Y-12719127D02*
X5029705Y-12747698D01*
X5029705Y-12747698D02*
X4915420Y-12861984D01*
X4915420Y-12861984D02*
X5039229Y-12861984D01*
X5163039Y-12661984D02*
X5182086Y-12661984D01*
X5182086Y-12661984D02*
X5201134Y-12671508D01*
X5201134Y-12671508D02*
X5210658Y-12681031D01*
X5210658Y-12681031D02*
X5220182Y-12700079D01*
X5220182Y-12700079D02*
X5229705Y-12738174D01*
X5229705Y-12738174D02*
X5229705Y-12785793D01*
X5229705Y-12785793D02*
X5220182Y-12823888D01*
X5220182Y-12823888D02*
X5210658Y-12842936D01*
X5210658Y-12842936D02*
X5201134Y-12852460D01*
X5201134Y-12852460D02*
X5182086Y-12861984D01*
X5182086Y-12861984D02*
X5163039Y-12861984D01*
X5163039Y-12861984D02*
X5143991Y-12852460D01*
X5143991Y-12852460D02*
X5134467Y-12842936D01*
X5134467Y-12842936D02*
X5124944Y-12823888D01*
X5124944Y-12823888D02*
X5115420Y-12785793D01*
X5115420Y-12785793D02*
X5115420Y-12738174D01*
X5115420Y-12738174D02*
X5124944Y-12700079D01*
X5124944Y-12700079D02*
X5134467Y-12681031D01*
X5134467Y-12681031D02*
X5143991Y-12671508D01*
X5143991Y-12671508D02*
X5163039Y-12661984D01*
X5315420Y-12861984D02*
X5315420Y-12728650D01*
X5315420Y-12747698D02*
X5324944Y-12738174D01*
X5324944Y-12738174D02*
X5343991Y-12728650D01*
X5343991Y-12728650D02*
X5372563Y-12728650D01*
X5372563Y-12728650D02*
X5391610Y-12738174D01*
X5391610Y-12738174D02*
X5401134Y-12757222D01*
X5401134Y-12757222D02*
X5401134Y-12861984D01*
X5401134Y-12757222D02*
X5410658Y-12738174D01*
X5410658Y-12738174D02*
X5429705Y-12728650D01*
X5429705Y-12728650D02*
X5458277Y-12728650D01*
X5458277Y-12728650D02*
X5477325Y-12738174D01*
X5477325Y-12738174D02*
X5486848Y-12757222D01*
X5486848Y-12757222D02*
X5486848Y-12861984D01*
X5582086Y-12861984D02*
X5582086Y-12728650D01*
X5582086Y-12747698D02*
X5591610Y-12738174D01*
X5591610Y-12738174D02*
X5610658Y-12728650D01*
X5610658Y-12728650D02*
X5639229Y-12728650D01*
X5639229Y-12728650D02*
X5658277Y-12738174D01*
X5658277Y-12738174D02*
X5667801Y-12757222D01*
X5667801Y-12757222D02*
X5667801Y-12861984D01*
X5667801Y-12757222D02*
X5677324Y-12738174D01*
X5677324Y-12738174D02*
X5696372Y-12728650D01*
X5696372Y-12728650D02*
X5724943Y-12728650D01*
X5724943Y-12728650D02*
X5743991Y-12738174D01*
X5743991Y-12738174D02*
X5753515Y-12757222D01*
X5753515Y-12757222D02*
X5753515Y-12861984D01*
X6143991Y-12652460D02*
X5972563Y-12909603D01*
X6401134Y-12661984D02*
X6420182Y-12661984D01*
X6420182Y-12661984D02*
X6439229Y-12671508D01*
X6439229Y-12671508D02*
X6448753Y-12681031D01*
X6448753Y-12681031D02*
X6458277Y-12700079D01*
X6458277Y-12700079D02*
X6467801Y-12738174D01*
X6467801Y-12738174D02*
X6467801Y-12785793D01*
X6467801Y-12785793D02*
X6458277Y-12823888D01*
X6458277Y-12823888D02*
X6448753Y-12842936D01*
X6448753Y-12842936D02*
X6439229Y-12852460D01*
X6439229Y-12852460D02*
X6420182Y-12861984D01*
X6420182Y-12861984D02*
X6401134Y-12861984D01*
X6401134Y-12861984D02*
X6382086Y-12852460D01*
X6382086Y-12852460D02*
X6372563Y-12842936D01*
X6372563Y-12842936D02*
X6363039Y-12823888D01*
X6363039Y-12823888D02*
X6353515Y-12785793D01*
X6353515Y-12785793D02*
X6353515Y-12738174D01*
X6353515Y-12738174D02*
X6363039Y-12700079D01*
X6363039Y-12700079D02*
X6372563Y-12681031D01*
X6372563Y-12681031D02*
X6382086Y-12671508D01*
X6382086Y-12671508D02*
X6401134Y-12661984D01*
X6553515Y-12842936D02*
X6563039Y-12852460D01*
X6563039Y-12852460D02*
X6553515Y-12861984D01*
X6553515Y-12861984D02*
X6543991Y-12852460D01*
X6543991Y-12852460D02*
X6553515Y-12842936D01*
X6553515Y-12842936D02*
X6553515Y-12861984D01*
X6686848Y-12661984D02*
X6705896Y-12661984D01*
X6705896Y-12661984D02*
X6724944Y-12671508D01*
X6724944Y-12671508D02*
X6734467Y-12681031D01*
X6734467Y-12681031D02*
X6743991Y-12700079D01*
X6743991Y-12700079D02*
X6753515Y-12738174D01*
X6753515Y-12738174D02*
X6753515Y-12785793D01*
X6753515Y-12785793D02*
X6743991Y-12823888D01*
X6743991Y-12823888D02*
X6734467Y-12842936D01*
X6734467Y-12842936D02*
X6724944Y-12852460D01*
X6724944Y-12852460D02*
X6705896Y-12861984D01*
X6705896Y-12861984D02*
X6686848Y-12861984D01*
X6686848Y-12861984D02*
X6667801Y-12852460D01*
X6667801Y-12852460D02*
X6658277Y-12842936D01*
X6658277Y-12842936D02*
X6648753Y-12823888D01*
X6648753Y-12823888D02*
X6639229Y-12785793D01*
X6639229Y-12785793D02*
X6639229Y-12738174D01*
X6639229Y-12738174D02*
X6648753Y-12700079D01*
X6648753Y-12700079D02*
X6658277Y-12681031D01*
X6658277Y-12681031D02*
X6667801Y-12671508D01*
X6667801Y-12671508D02*
X6686848Y-12661984D01*
X6924944Y-12728650D02*
X6924944Y-12861984D01*
X6877325Y-12652460D02*
X6829706Y-12795317D01*
X6829706Y-12795317D02*
X6953515Y-12795317D01*
X7067801Y-12661984D02*
X7086848Y-12661984D01*
X7086848Y-12661984D02*
X7105896Y-12671508D01*
X7105896Y-12671508D02*
X7115420Y-12681031D01*
X7115420Y-12681031D02*
X7124944Y-12700079D01*
X7124944Y-12700079D02*
X7134467Y-12738174D01*
X7134467Y-12738174D02*
X7134467Y-12785793D01*
X7134467Y-12785793D02*
X7124944Y-12823888D01*
X7124944Y-12823888D02*
X7115420Y-12842936D01*
X7115420Y-12842936D02*
X7105896Y-12852460D01*
X7105896Y-12852460D02*
X7086848Y-12861984D01*
X7086848Y-12861984D02*
X7067801Y-12861984D01*
X7067801Y-12861984D02*
X7048753Y-12852460D01*
X7048753Y-12852460D02*
X7039229Y-12842936D01*
X7039229Y-12842936D02*
X7029706Y-12823888D01*
X7029706Y-12823888D02*
X7020182Y-12785793D01*
X7020182Y-12785793D02*
X7020182Y-12738174D01*
X7020182Y-12738174D02*
X7029706Y-12700079D01*
X7029706Y-12700079D02*
X7039229Y-12681031D01*
X7039229Y-12681031D02*
X7048753Y-12671508D01*
X7048753Y-12671508D02*
X7067801Y-12661984D01*
X7210658Y-12681031D02*
X7220182Y-12671508D01*
X7220182Y-12671508D02*
X7239229Y-12661984D01*
X7239229Y-12661984D02*
X7286848Y-12661984D01*
X7286848Y-12661984D02*
X7305896Y-12671508D01*
X7305896Y-12671508D02*
X7315420Y-12681031D01*
X7315420Y-12681031D02*
X7324944Y-12700079D01*
X7324944Y-12700079D02*
X7324944Y-12719127D01*
X7324944Y-12719127D02*
X7315420Y-12747698D01*
X7315420Y-12747698D02*
X7201134Y-12861984D01*
X7201134Y-12861984D02*
X7324944Y-12861984D01*
X7401134Y-12661984D02*
X7401134Y-12700079D01*
X7477325Y-12661984D02*
X7477325Y-12700079D01*
X7772563Y-12938174D02*
X7763039Y-12928650D01*
X7763039Y-12928650D02*
X7743991Y-12900079D01*
X7743991Y-12900079D02*
X7734468Y-12881031D01*
X7734468Y-12881031D02*
X7724944Y-12852460D01*
X7724944Y-12852460D02*
X7715420Y-12804841D01*
X7715420Y-12804841D02*
X7715420Y-12766746D01*
X7715420Y-12766746D02*
X7724944Y-12719127D01*
X7724944Y-12719127D02*
X7734468Y-12690555D01*
X7734468Y-12690555D02*
X7743991Y-12671508D01*
X7743991Y-12671508D02*
X7763039Y-12642936D01*
X7763039Y-12642936D02*
X7772563Y-12633412D01*
X7934468Y-12728650D02*
X7934468Y-12861984D01*
X7886848Y-12652460D02*
X7839229Y-12795317D01*
X7839229Y-12795317D02*
X7963039Y-12795317D01*
X8124944Y-12728650D02*
X8124944Y-12861984D01*
X8077325Y-12652460D02*
X8029706Y-12795317D01*
X8029706Y-12795317D02*
X8153515Y-12795317D01*
X8382087Y-12861984D02*
X8382087Y-12661984D01*
X8467801Y-12861984D02*
X8467801Y-12757222D01*
X8467801Y-12757222D02*
X8458277Y-12738174D01*
X8458277Y-12738174D02*
X8439230Y-12728650D01*
X8439230Y-12728650D02*
X8410658Y-12728650D01*
X8410658Y-12728650D02*
X8391611Y-12738174D01*
X8391611Y-12738174D02*
X8382087Y-12747698D01*
X8591611Y-12861984D02*
X8572563Y-12852460D01*
X8572563Y-12852460D02*
X8563039Y-12842936D01*
X8563039Y-12842936D02*
X8553515Y-12823888D01*
X8553515Y-12823888D02*
X8553515Y-12766746D01*
X8553515Y-12766746D02*
X8563039Y-12747698D01*
X8563039Y-12747698D02*
X8572563Y-12738174D01*
X8572563Y-12738174D02*
X8591611Y-12728650D01*
X8591611Y-12728650D02*
X8620182Y-12728650D01*
X8620182Y-12728650D02*
X8639230Y-12738174D01*
X8639230Y-12738174D02*
X8648753Y-12747698D01*
X8648753Y-12747698D02*
X8658277Y-12766746D01*
X8658277Y-12766746D02*
X8658277Y-12823888D01*
X8658277Y-12823888D02*
X8648753Y-12842936D01*
X8648753Y-12842936D02*
X8639230Y-12852460D01*
X8639230Y-12852460D02*
X8620182Y-12861984D01*
X8620182Y-12861984D02*
X8591611Y-12861984D01*
X8772563Y-12861984D02*
X8753515Y-12852460D01*
X8753515Y-12852460D02*
X8743992Y-12833412D01*
X8743992Y-12833412D02*
X8743992Y-12661984D01*
X8924944Y-12852460D02*
X8905896Y-12861984D01*
X8905896Y-12861984D02*
X8867801Y-12861984D01*
X8867801Y-12861984D02*
X8848753Y-12852460D01*
X8848753Y-12852460D02*
X8839230Y-12833412D01*
X8839230Y-12833412D02*
X8839230Y-12757222D01*
X8839230Y-12757222D02*
X8848753Y-12738174D01*
X8848753Y-12738174D02*
X8867801Y-12728650D01*
X8867801Y-12728650D02*
X8905896Y-12728650D01*
X8905896Y-12728650D02*
X8924944Y-12738174D01*
X8924944Y-12738174D02*
X8934468Y-12757222D01*
X8934468Y-12757222D02*
X8934468Y-12776269D01*
X8934468Y-12776269D02*
X8839230Y-12795317D01*
X9010658Y-12852460D02*
X9029706Y-12861984D01*
X9029706Y-12861984D02*
X9067801Y-12861984D01*
X9067801Y-12861984D02*
X9086849Y-12852460D01*
X9086849Y-12852460D02*
X9096373Y-12833412D01*
X9096373Y-12833412D02*
X9096373Y-12823888D01*
X9096373Y-12823888D02*
X9086849Y-12804841D01*
X9086849Y-12804841D02*
X9067801Y-12795317D01*
X9067801Y-12795317D02*
X9039230Y-12795317D01*
X9039230Y-12795317D02*
X9020182Y-12785793D01*
X9020182Y-12785793D02*
X9010658Y-12766746D01*
X9010658Y-12766746D02*
X9010658Y-12757222D01*
X9010658Y-12757222D02*
X9020182Y-12738174D01*
X9020182Y-12738174D02*
X9039230Y-12728650D01*
X9039230Y-12728650D02*
X9067801Y-12728650D01*
X9067801Y-12728650D02*
X9086849Y-12738174D01*
X9163039Y-12938174D02*
X9172563Y-12928650D01*
X9172563Y-12928650D02*
X9191611Y-12900079D01*
X9191611Y-12900079D02*
X9201134Y-12881031D01*
X9201134Y-12881031D02*
X9210658Y-12852460D01*
X9210658Y-12852460D02*
X9220182Y-12804841D01*
X9220182Y-12804841D02*
X9220182Y-12766746D01*
X9220182Y-12766746D02*
X9210658Y-12719127D01*
X9210658Y-12719127D02*
X9201134Y-12690555D01*
X9201134Y-12690555D02*
X9191611Y-12671508D01*
X9191611Y-12671508D02*
X9172563Y-12642936D01*
X9172563Y-12642936D02*
X9163039Y-12633412D01*
D14*
X4181977Y-13071977D02*
X4181977Y-12997023D01*
X4107023Y-12997023D01*
X4107023Y-13071977D01*
X4181977Y-13071977D01*
D11*
X4563039Y-13125984D02*
X4448753Y-13125984D01*
X4505896Y-13125984D02*
X4505896Y-12925984D01*
X4505896Y-12925984D02*
X4486848Y-12954555D01*
X4486848Y-12954555D02*
X4467801Y-12973603D01*
X4467801Y-12973603D02*
X4448753Y-12983127D01*
X4648753Y-13106936D02*
X4658277Y-13116460D01*
X4658277Y-13116460D02*
X4648753Y-13125984D01*
X4648753Y-13125984D02*
X4639229Y-13116460D01*
X4639229Y-13116460D02*
X4648753Y-13106936D01*
X4648753Y-13106936D02*
X4648753Y-13125984D01*
X4782086Y-12925984D02*
X4801134Y-12925984D01*
X4801134Y-12925984D02*
X4820182Y-12935508D01*
X4820182Y-12935508D02*
X4829705Y-12945031D01*
X4829705Y-12945031D02*
X4839229Y-12964079D01*
X4839229Y-12964079D02*
X4848753Y-13002174D01*
X4848753Y-13002174D02*
X4848753Y-13049793D01*
X4848753Y-13049793D02*
X4839229Y-13087888D01*
X4839229Y-13087888D02*
X4829705Y-13106936D01*
X4829705Y-13106936D02*
X4820182Y-13116460D01*
X4820182Y-13116460D02*
X4801134Y-13125984D01*
X4801134Y-13125984D02*
X4782086Y-13125984D01*
X4782086Y-13125984D02*
X4763039Y-13116460D01*
X4763039Y-13116460D02*
X4753515Y-13106936D01*
X4753515Y-13106936D02*
X4743991Y-13087888D01*
X4743991Y-13087888D02*
X4734467Y-13049793D01*
X4734467Y-13049793D02*
X4734467Y-13002174D01*
X4734467Y-13002174D02*
X4743991Y-12964079D01*
X4743991Y-12964079D02*
X4753515Y-12945031D01*
X4753515Y-12945031D02*
X4763039Y-12935508D01*
X4763039Y-12935508D02*
X4782086Y-12925984D01*
X5020182Y-12925984D02*
X4982086Y-12925984D01*
X4982086Y-12925984D02*
X4963039Y-12935508D01*
X4963039Y-12935508D02*
X4953515Y-12945031D01*
X4953515Y-12945031D02*
X4934467Y-12973603D01*
X4934467Y-12973603D02*
X4924944Y-13011698D01*
X4924944Y-13011698D02*
X4924944Y-13087888D01*
X4924944Y-13087888D02*
X4934467Y-13106936D01*
X4934467Y-13106936D02*
X4943991Y-13116460D01*
X4943991Y-13116460D02*
X4963039Y-13125984D01*
X4963039Y-13125984D02*
X5001134Y-13125984D01*
X5001134Y-13125984D02*
X5020182Y-13116460D01*
X5020182Y-13116460D02*
X5029705Y-13106936D01*
X5029705Y-13106936D02*
X5039229Y-13087888D01*
X5039229Y-13087888D02*
X5039229Y-13040269D01*
X5039229Y-13040269D02*
X5029705Y-13021222D01*
X5029705Y-13021222D02*
X5020182Y-13011698D01*
X5020182Y-13011698D02*
X5001134Y-13002174D01*
X5001134Y-13002174D02*
X4963039Y-13002174D01*
X4963039Y-13002174D02*
X4943991Y-13011698D01*
X4943991Y-13011698D02*
X4934467Y-13021222D01*
X4934467Y-13021222D02*
X4924944Y-13040269D01*
X5163039Y-12925984D02*
X5182086Y-12925984D01*
X5182086Y-12925984D02*
X5201134Y-12935508D01*
X5201134Y-12935508D02*
X5210658Y-12945031D01*
X5210658Y-12945031D02*
X5220182Y-12964079D01*
X5220182Y-12964079D02*
X5229705Y-13002174D01*
X5229705Y-13002174D02*
X5229705Y-13049793D01*
X5229705Y-13049793D02*
X5220182Y-13087888D01*
X5220182Y-13087888D02*
X5210658Y-13106936D01*
X5210658Y-13106936D02*
X5201134Y-13116460D01*
X5201134Y-13116460D02*
X5182086Y-13125984D01*
X5182086Y-13125984D02*
X5163039Y-13125984D01*
X5163039Y-13125984D02*
X5143991Y-13116460D01*
X5143991Y-13116460D02*
X5134467Y-13106936D01*
X5134467Y-13106936D02*
X5124944Y-13087888D01*
X5124944Y-13087888D02*
X5115420Y-13049793D01*
X5115420Y-13049793D02*
X5115420Y-13002174D01*
X5115420Y-13002174D02*
X5124944Y-12964079D01*
X5124944Y-12964079D02*
X5134467Y-12945031D01*
X5134467Y-12945031D02*
X5143991Y-12935508D01*
X5143991Y-12935508D02*
X5163039Y-12925984D01*
X5315420Y-13125984D02*
X5315420Y-12992650D01*
X5315420Y-13011698D02*
X5324944Y-13002174D01*
X5324944Y-13002174D02*
X5343991Y-12992650D01*
X5343991Y-12992650D02*
X5372563Y-12992650D01*
X5372563Y-12992650D02*
X5391610Y-13002174D01*
X5391610Y-13002174D02*
X5401134Y-13021222D01*
X5401134Y-13021222D02*
X5401134Y-13125984D01*
X5401134Y-13021222D02*
X5410658Y-13002174D01*
X5410658Y-13002174D02*
X5429705Y-12992650D01*
X5429705Y-12992650D02*
X5458277Y-12992650D01*
X5458277Y-12992650D02*
X5477325Y-13002174D01*
X5477325Y-13002174D02*
X5486848Y-13021222D01*
X5486848Y-13021222D02*
X5486848Y-13125984D01*
X5582086Y-13125984D02*
X5582086Y-12992650D01*
X5582086Y-13011698D02*
X5591610Y-13002174D01*
X5591610Y-13002174D02*
X5610658Y-12992650D01*
X5610658Y-12992650D02*
X5639229Y-12992650D01*
X5639229Y-12992650D02*
X5658277Y-13002174D01*
X5658277Y-13002174D02*
X5667801Y-13021222D01*
X5667801Y-13021222D02*
X5667801Y-13125984D01*
X5667801Y-13021222D02*
X5677324Y-13002174D01*
X5677324Y-13002174D02*
X5696372Y-12992650D01*
X5696372Y-12992650D02*
X5724943Y-12992650D01*
X5724943Y-12992650D02*
X5743991Y-13002174D01*
X5743991Y-13002174D02*
X5753515Y-13021222D01*
X5753515Y-13021222D02*
X5753515Y-13125984D01*
X6143991Y-12916460D02*
X5972563Y-13173603D01*
X6401134Y-12925984D02*
X6420182Y-12925984D01*
X6420182Y-12925984D02*
X6439229Y-12935508D01*
X6439229Y-12935508D02*
X6448753Y-12945031D01*
X6448753Y-12945031D02*
X6458277Y-12964079D01*
X6458277Y-12964079D02*
X6467801Y-13002174D01*
X6467801Y-13002174D02*
X6467801Y-13049793D01*
X6467801Y-13049793D02*
X6458277Y-13087888D01*
X6458277Y-13087888D02*
X6448753Y-13106936D01*
X6448753Y-13106936D02*
X6439229Y-13116460D01*
X6439229Y-13116460D02*
X6420182Y-13125984D01*
X6420182Y-13125984D02*
X6401134Y-13125984D01*
X6401134Y-13125984D02*
X6382086Y-13116460D01*
X6382086Y-13116460D02*
X6372563Y-13106936D01*
X6372563Y-13106936D02*
X6363039Y-13087888D01*
X6363039Y-13087888D02*
X6353515Y-13049793D01*
X6353515Y-13049793D02*
X6353515Y-13002174D01*
X6353515Y-13002174D02*
X6363039Y-12964079D01*
X6363039Y-12964079D02*
X6372563Y-12945031D01*
X6372563Y-12945031D02*
X6382086Y-12935508D01*
X6382086Y-12935508D02*
X6401134Y-12925984D01*
X6553515Y-13106936D02*
X6563039Y-13116460D01*
X6563039Y-13116460D02*
X6553515Y-13125984D01*
X6553515Y-13125984D02*
X6543991Y-13116460D01*
X6543991Y-13116460D02*
X6553515Y-13106936D01*
X6553515Y-13106936D02*
X6553515Y-13125984D01*
X6686848Y-12925984D02*
X6705896Y-12925984D01*
X6705896Y-12925984D02*
X6724944Y-12935508D01*
X6724944Y-12935508D02*
X6734467Y-12945031D01*
X6734467Y-12945031D02*
X6743991Y-12964079D01*
X6743991Y-12964079D02*
X6753515Y-13002174D01*
X6753515Y-13002174D02*
X6753515Y-13049793D01*
X6753515Y-13049793D02*
X6743991Y-13087888D01*
X6743991Y-13087888D02*
X6734467Y-13106936D01*
X6734467Y-13106936D02*
X6724944Y-13116460D01*
X6724944Y-13116460D02*
X6705896Y-13125984D01*
X6705896Y-13125984D02*
X6686848Y-13125984D01*
X6686848Y-13125984D02*
X6667801Y-13116460D01*
X6667801Y-13116460D02*
X6658277Y-13106936D01*
X6658277Y-13106936D02*
X6648753Y-13087888D01*
X6648753Y-13087888D02*
X6639229Y-13049793D01*
X6639229Y-13049793D02*
X6639229Y-13002174D01*
X6639229Y-13002174D02*
X6648753Y-12964079D01*
X6648753Y-12964079D02*
X6658277Y-12945031D01*
X6658277Y-12945031D02*
X6667801Y-12935508D01*
X6667801Y-12935508D02*
X6686848Y-12925984D01*
X6924944Y-12992650D02*
X6924944Y-13125984D01*
X6877325Y-12916460D02*
X6829706Y-13059317D01*
X6829706Y-13059317D02*
X6953515Y-13059317D01*
X7134467Y-13125984D02*
X7020182Y-13125984D01*
X7077325Y-13125984D02*
X7077325Y-12925984D01*
X7077325Y-12925984D02*
X7058277Y-12954555D01*
X7058277Y-12954555D02*
X7039229Y-12973603D01*
X7039229Y-12973603D02*
X7020182Y-12983127D01*
X7201134Y-12925984D02*
X7334467Y-12925984D01*
X7334467Y-12925984D02*
X7248753Y-13125984D01*
X7401134Y-12925984D02*
X7401134Y-12964079D01*
X7477325Y-12925984D02*
X7477325Y-12964079D01*
X7772563Y-13202174D02*
X7763039Y-13192650D01*
X7763039Y-13192650D02*
X7743991Y-13164079D01*
X7743991Y-13164079D02*
X7734468Y-13145031D01*
X7734468Y-13145031D02*
X7724944Y-13116460D01*
X7724944Y-13116460D02*
X7715420Y-13068841D01*
X7715420Y-13068841D02*
X7715420Y-13030746D01*
X7715420Y-13030746D02*
X7724944Y-12983127D01*
X7724944Y-12983127D02*
X7734468Y-12954555D01*
X7734468Y-12954555D02*
X7743991Y-12935508D01*
X7743991Y-12935508D02*
X7763039Y-12906936D01*
X7763039Y-12906936D02*
X7772563Y-12897412D01*
X7839229Y-12945031D02*
X7848753Y-12935508D01*
X7848753Y-12935508D02*
X7867801Y-12925984D01*
X7867801Y-12925984D02*
X7915420Y-12925984D01*
X7915420Y-12925984D02*
X7934468Y-12935508D01*
X7934468Y-12935508D02*
X7943991Y-12945031D01*
X7943991Y-12945031D02*
X7953515Y-12964079D01*
X7953515Y-12964079D02*
X7953515Y-12983127D01*
X7953515Y-12983127D02*
X7943991Y-13011698D01*
X7943991Y-13011698D02*
X7829706Y-13125984D01*
X7829706Y-13125984D02*
X7953515Y-13125984D01*
X8191610Y-13125984D02*
X8191610Y-12925984D01*
X8277325Y-13125984D02*
X8277325Y-13021222D01*
X8277325Y-13021222D02*
X8267801Y-13002174D01*
X8267801Y-13002174D02*
X8248753Y-12992650D01*
X8248753Y-12992650D02*
X8220182Y-12992650D01*
X8220182Y-12992650D02*
X8201134Y-13002174D01*
X8201134Y-13002174D02*
X8191610Y-13011698D01*
X8401134Y-13125984D02*
X8382087Y-13116460D01*
X8382087Y-13116460D02*
X8372563Y-13106936D01*
X8372563Y-13106936D02*
X8363039Y-13087888D01*
X8363039Y-13087888D02*
X8363039Y-13030746D01*
X8363039Y-13030746D02*
X8372563Y-13011698D01*
X8372563Y-13011698D02*
X8382087Y-13002174D01*
X8382087Y-13002174D02*
X8401134Y-12992650D01*
X8401134Y-12992650D02*
X8429706Y-12992650D01*
X8429706Y-12992650D02*
X8448753Y-13002174D01*
X8448753Y-13002174D02*
X8458277Y-13011698D01*
X8458277Y-13011698D02*
X8467801Y-13030746D01*
X8467801Y-13030746D02*
X8467801Y-13087888D01*
X8467801Y-13087888D02*
X8458277Y-13106936D01*
X8458277Y-13106936D02*
X8448753Y-13116460D01*
X8448753Y-13116460D02*
X8429706Y-13125984D01*
X8429706Y-13125984D02*
X8401134Y-13125984D01*
X8582087Y-13125984D02*
X8563039Y-13116460D01*
X8563039Y-13116460D02*
X8553515Y-13097412D01*
X8553515Y-13097412D02*
X8553515Y-12925984D01*
X8734468Y-13116460D02*
X8715420Y-13125984D01*
X8715420Y-13125984D02*
X8677325Y-13125984D01*
X8677325Y-13125984D02*
X8658277Y-13116460D01*
X8658277Y-13116460D02*
X8648753Y-13097412D01*
X8648753Y-13097412D02*
X8648753Y-13021222D01*
X8648753Y-13021222D02*
X8658277Y-13002174D01*
X8658277Y-13002174D02*
X8677325Y-12992650D01*
X8677325Y-12992650D02*
X8715420Y-12992650D01*
X8715420Y-12992650D02*
X8734468Y-13002174D01*
X8734468Y-13002174D02*
X8743992Y-13021222D01*
X8743992Y-13021222D02*
X8743992Y-13040269D01*
X8743992Y-13040269D02*
X8648753Y-13059317D01*
X8820182Y-13116460D02*
X8839230Y-13125984D01*
X8839230Y-13125984D02*
X8877325Y-13125984D01*
X8877325Y-13125984D02*
X8896373Y-13116460D01*
X8896373Y-13116460D02*
X8905896Y-13097412D01*
X8905896Y-13097412D02*
X8905896Y-13087888D01*
X8905896Y-13087888D02*
X8896373Y-13068841D01*
X8896373Y-13068841D02*
X8877325Y-13059317D01*
X8877325Y-13059317D02*
X8848753Y-13059317D01*
X8848753Y-13059317D02*
X8829706Y-13049793D01*
X8829706Y-13049793D02*
X8820182Y-13030746D01*
X8820182Y-13030746D02*
X8820182Y-13021222D01*
X8820182Y-13021222D02*
X8829706Y-13002174D01*
X8829706Y-13002174D02*
X8848753Y-12992650D01*
X8848753Y-12992650D02*
X8877325Y-12992650D01*
X8877325Y-12992650D02*
X8896373Y-13002174D01*
X8972563Y-13202174D02*
X8982087Y-13192650D01*
X8982087Y-13192650D02*
X9001134Y-13164079D01*
X9001134Y-13164079D02*
X9010658Y-13145031D01*
X9010658Y-13145031D02*
X9020182Y-13116460D01*
X9020182Y-13116460D02*
X9029706Y-13068841D01*
X9029706Y-13068841D02*
X9029706Y-13030746D01*
X9029706Y-13030746D02*
X9020182Y-12983127D01*
X9020182Y-12983127D02*
X9010658Y-12954555D01*
X9010658Y-12954555D02*
X9001134Y-12935508D01*
X9001134Y-12935508D02*
X8982087Y-12906936D01*
X8982087Y-12906936D02*
X8972563Y-12897412D01*
M02*
