M48
; DRILL file {KiCad 9.0.7} date 2026-05-02T16:38:01+0700
; FORMAT={-:-/ absolute / metric / decimal}
; #@! TF.CreationDate,2026-05-02T16:38:01+07:00
; #@! TF.GenerationSoftware,Kicad,Pcbnew,9.0.7
; #@! TF.FileFunction,Plated,1,2,PTH
FMAT,2
METRIC
; #@! TA.AperFunction,Plated,PTH,ViaDrill
T1C0.300
; #@! TA.AperFunction,Plated,PTH,ComponentDrill
T2C1.000
; #@! TA.AperFunction,Plated,PTH,ComponentDrill
T3C1.020
; #@! TA.AperFunction,Plated,PTH,ComponentDrill
T4C1.060
%
G90
G05
T1
X49.2Y-66.4
X50.75Y-69.25
X53.734Y-83.0
X54.734Y-68.0
X55.734Y-85.62
X56.75Y-88.75
X57.734Y-78.95
X58.8Y-95.5
X62.8Y-69.4
X63.4Y-82.8
X66.5Y-69.6
X67.5Y-73.0
X67.8Y-82.8
X74.0Y-74.0
X74.0Y-83.0
X78.0Y-71.0
X79.0Y-77.0
X80.0Y-69.0
X95.0Y-73.0
X95.0Y-82.0
X100.75Y-81.5
X102.25Y-71.0
T2
X52.195Y-60.86
X52.195Y-63.4
X54.735Y-60.86
X54.735Y-63.4
X57.275Y-60.86
X57.275Y-63.4
X60.92Y-60.86
X60.92Y-63.4
X63.46Y-60.86
X63.46Y-63.4
X66.0Y-60.86
X66.0Y-63.4
X69.67Y-60.86
X69.67Y-63.4
X72.21Y-60.86
X72.21Y-63.4
X74.75Y-60.86
X74.75Y-63.4
X98.775Y-78.725
X98.775Y-81.265
X98.775Y-83.805
T3
X55.38Y-90.77
X55.38Y-113.63
X57.92Y-90.77
X57.92Y-113.63
X60.46Y-90.77
X60.46Y-113.63
X63.0Y-90.77
X63.0Y-113.63
X65.54Y-90.77
X65.54Y-113.63
X68.08Y-90.77
X68.08Y-113.63
X70.62Y-90.77
X70.62Y-113.63
X73.16Y-90.77
X73.16Y-113.63
X75.7Y-90.77
X75.7Y-113.63
X78.24Y-90.77
X78.24Y-113.63
X80.78Y-90.77
X80.78Y-113.63
X83.32Y-90.77
X83.32Y-113.63
X85.86Y-90.77
X85.86Y-113.63
X88.4Y-90.77
X88.4Y-113.63
X90.94Y-90.77
X90.94Y-113.63
X93.48Y-90.77
X93.48Y-113.63
X96.02Y-90.77
X96.02Y-113.63
X98.56Y-90.77
X98.56Y-113.63
X101.1Y-90.77
X101.1Y-113.63
X103.64Y-90.77
X103.64Y-113.63
X106.18Y-90.77
X106.18Y-113.63
X108.72Y-90.77
X108.72Y-113.63
T4
X99.25Y-71.25
X104.25Y-71.25
M30
