%TF.GenerationSoftware,KiCad,Pcbnew,9.0.7*%
%TF.CreationDate,2026-05-02T16:38:01+07:00*%
%TF.ProjectId,designspace,64657369-676e-4737-9061-63652e6b6963,rev?*%
%TF.SameCoordinates,Original*%
%TF.FileFunction,Drillmap*%
%TF.FilePolarity,Positive*%
%FSLAX45Y45*%
G04 Gerber Fmt 4.5, Leading zero omitted, Abs format (unit mm)*
G04 Created by KiCad (PCBNEW 9.0.7) date 2026-05-02 16:38:01*
%MOMM*%
%LPD*%
G01*
G04 APERTURE LIST*
%ADD10C,0.050000*%
%ADD11C,0.200000*%
%ADD12C,0.150000*%
%ADD13C,0.220000*%
G04 APERTURE END LIST*
D10*
X4200000Y-5800000D02*
X11600000Y-5800000D01*
X11600000Y-11600000D01*
X4200000Y-11600000D01*
X4200000Y-5800000D01*
D11*
D12*
X9025000Y-7186500D02*
X9175000Y-7336500D01*
X9175000Y-7186500D02*
X9025000Y-7336500D01*
X9025000Y-7886500D02*
X9175000Y-8036500D01*
X9175000Y-7886500D02*
X9025000Y-8036500D01*
D13*
X4570000Y-6060000D02*
G75*
G02*
X4350000Y-6060000I-110000J0D01*
G01*
X4350000Y-6060000D02*
G75*
G02*
X4570000Y-6060000I110000J0D01*
G01*
X4570000Y-11340000D02*
G75*
G02*
X4350000Y-11340000I-110000J0D01*
G01*
X4350000Y-11340000D02*
G75*
G02*
X4570000Y-11340000I110000J0D01*
G01*
X11410000Y-6100000D02*
G75*
G02*
X11190000Y-6100000I-110000J0D01*
G01*
X11190000Y-6100000D02*
G75*
G02*
X11410000Y-6100000I110000J0D01*
G01*
X11430000Y-11280000D02*
G75*
G02*
X11210000Y-11280000I-110000J0D01*
G01*
X11210000Y-11280000D02*
G75*
G02*
X11430000Y-11280000I110000J0D01*
G01*
D11*
X4458277Y-11913984D02*
X4458277Y-11713984D01*
X4458277Y-11713984D02*
X4505896Y-11713984D01*
X4505896Y-11713984D02*
X4534467Y-11723508D01*
X4534467Y-11723508D02*
X4553515Y-11742555D01*
X4553515Y-11742555D02*
X4563039Y-11761603D01*
X4563039Y-11761603D02*
X4572563Y-11799698D01*
X4572563Y-11799698D02*
X4572563Y-11828269D01*
X4572563Y-11828269D02*
X4563039Y-11866365D01*
X4563039Y-11866365D02*
X4553515Y-11885412D01*
X4553515Y-11885412D02*
X4534467Y-11904460D01*
X4534467Y-11904460D02*
X4505896Y-11913984D01*
X4505896Y-11913984D02*
X4458277Y-11913984D01*
X4658277Y-11913984D02*
X4658277Y-11780650D01*
X4658277Y-11818746D02*
X4667801Y-11799698D01*
X4667801Y-11799698D02*
X4677324Y-11790174D01*
X4677324Y-11790174D02*
X4696372Y-11780650D01*
X4696372Y-11780650D02*
X4715420Y-11780650D01*
X4782086Y-11913984D02*
X4782086Y-11780650D01*
X4782086Y-11713984D02*
X4772563Y-11723508D01*
X4772563Y-11723508D02*
X4782086Y-11733031D01*
X4782086Y-11733031D02*
X4791610Y-11723508D01*
X4791610Y-11723508D02*
X4782086Y-11713984D01*
X4782086Y-11713984D02*
X4782086Y-11733031D01*
X4905896Y-11913984D02*
X4886848Y-11904460D01*
X4886848Y-11904460D02*
X4877324Y-11885412D01*
X4877324Y-11885412D02*
X4877324Y-11713984D01*
X5010658Y-11913984D02*
X4991610Y-11904460D01*
X4991610Y-11904460D02*
X4982086Y-11885412D01*
X4982086Y-11885412D02*
X4982086Y-11713984D01*
X5239229Y-11913984D02*
X5239229Y-11713984D01*
X5239229Y-11713984D02*
X5305896Y-11856841D01*
X5305896Y-11856841D02*
X5372563Y-11713984D01*
X5372563Y-11713984D02*
X5372563Y-11913984D01*
X5553515Y-11913984D02*
X5553515Y-11809222D01*
X5553515Y-11809222D02*
X5543991Y-11790174D01*
X5543991Y-11790174D02*
X5524944Y-11780650D01*
X5524944Y-11780650D02*
X5486848Y-11780650D01*
X5486848Y-11780650D02*
X5467801Y-11790174D01*
X5553515Y-11904460D02*
X5534467Y-11913984D01*
X5534467Y-11913984D02*
X5486848Y-11913984D01*
X5486848Y-11913984D02*
X5467801Y-11904460D01*
X5467801Y-11904460D02*
X5458277Y-11885412D01*
X5458277Y-11885412D02*
X5458277Y-11866365D01*
X5458277Y-11866365D02*
X5467801Y-11847317D01*
X5467801Y-11847317D02*
X5486848Y-11837793D01*
X5486848Y-11837793D02*
X5534467Y-11837793D01*
X5534467Y-11837793D02*
X5553515Y-11828269D01*
X5648753Y-11780650D02*
X5648753Y-11980650D01*
X5648753Y-11790174D02*
X5667801Y-11780650D01*
X5667801Y-11780650D02*
X5705896Y-11780650D01*
X5705896Y-11780650D02*
X5724943Y-11790174D01*
X5724943Y-11790174D02*
X5734467Y-11799698D01*
X5734467Y-11799698D02*
X5743991Y-11818746D01*
X5743991Y-11818746D02*
X5743991Y-11875888D01*
X5743991Y-11875888D02*
X5734467Y-11894936D01*
X5734467Y-11894936D02*
X5724943Y-11904460D01*
X5724943Y-11904460D02*
X5705896Y-11913984D01*
X5705896Y-11913984D02*
X5667801Y-11913984D01*
X5667801Y-11913984D02*
X5648753Y-11904460D01*
X5829705Y-11894936D02*
X5839229Y-11904460D01*
X5839229Y-11904460D02*
X5829705Y-11913984D01*
X5829705Y-11913984D02*
X5820182Y-11904460D01*
X5820182Y-11904460D02*
X5829705Y-11894936D01*
X5829705Y-11894936D02*
X5829705Y-11913984D01*
X5829705Y-11790174D02*
X5839229Y-11799698D01*
X5839229Y-11799698D02*
X5829705Y-11809222D01*
X5829705Y-11809222D02*
X5820182Y-11799698D01*
X5820182Y-11799698D02*
X5829705Y-11790174D01*
X5829705Y-11790174D02*
X5829705Y-11809222D01*
D12*
X4047500Y-12167500D02*
X4197500Y-12317500D01*
X4197500Y-12167500D02*
X4047500Y-12317500D01*
D11*
X4563039Y-12333984D02*
X4448753Y-12333984D01*
X4505896Y-12333984D02*
X4505896Y-12133984D01*
X4505896Y-12133984D02*
X4486848Y-12162555D01*
X4486848Y-12162555D02*
X4467801Y-12181603D01*
X4467801Y-12181603D02*
X4448753Y-12191127D01*
X4648753Y-12314936D02*
X4658277Y-12324460D01*
X4658277Y-12324460D02*
X4648753Y-12333984D01*
X4648753Y-12333984D02*
X4639229Y-12324460D01*
X4639229Y-12324460D02*
X4648753Y-12314936D01*
X4648753Y-12314936D02*
X4648753Y-12333984D01*
X4839229Y-12133984D02*
X4743991Y-12133984D01*
X4743991Y-12133984D02*
X4734467Y-12229222D01*
X4734467Y-12229222D02*
X4743991Y-12219698D01*
X4743991Y-12219698D02*
X4763039Y-12210174D01*
X4763039Y-12210174D02*
X4810658Y-12210174D01*
X4810658Y-12210174D02*
X4829705Y-12219698D01*
X4829705Y-12219698D02*
X4839229Y-12229222D01*
X4839229Y-12229222D02*
X4848753Y-12248269D01*
X4848753Y-12248269D02*
X4848753Y-12295888D01*
X4848753Y-12295888D02*
X4839229Y-12314936D01*
X4839229Y-12314936D02*
X4829705Y-12324460D01*
X4829705Y-12324460D02*
X4810658Y-12333984D01*
X4810658Y-12333984D02*
X4763039Y-12333984D01*
X4763039Y-12333984D02*
X4743991Y-12324460D01*
X4743991Y-12324460D02*
X4734467Y-12314936D01*
X4972563Y-12133984D02*
X4991610Y-12133984D01*
X4991610Y-12133984D02*
X5010658Y-12143508D01*
X5010658Y-12143508D02*
X5020182Y-12153031D01*
X5020182Y-12153031D02*
X5029705Y-12172079D01*
X5029705Y-12172079D02*
X5039229Y-12210174D01*
X5039229Y-12210174D02*
X5039229Y-12257793D01*
X5039229Y-12257793D02*
X5029705Y-12295888D01*
X5029705Y-12295888D02*
X5020182Y-12314936D01*
X5020182Y-12314936D02*
X5010658Y-12324460D01*
X5010658Y-12324460D02*
X4991610Y-12333984D01*
X4991610Y-12333984D02*
X4972563Y-12333984D01*
X4972563Y-12333984D02*
X4953515Y-12324460D01*
X4953515Y-12324460D02*
X4943991Y-12314936D01*
X4943991Y-12314936D02*
X4934467Y-12295888D01*
X4934467Y-12295888D02*
X4924944Y-12257793D01*
X4924944Y-12257793D02*
X4924944Y-12210174D01*
X4924944Y-12210174D02*
X4934467Y-12172079D01*
X4934467Y-12172079D02*
X4943991Y-12153031D01*
X4943991Y-12153031D02*
X4953515Y-12143508D01*
X4953515Y-12143508D02*
X4972563Y-12133984D01*
X5163039Y-12133984D02*
X5182086Y-12133984D01*
X5182086Y-12133984D02*
X5201134Y-12143508D01*
X5201134Y-12143508D02*
X5210658Y-12153031D01*
X5210658Y-12153031D02*
X5220182Y-12172079D01*
X5220182Y-12172079D02*
X5229705Y-12210174D01*
X5229705Y-12210174D02*
X5229705Y-12257793D01*
X5229705Y-12257793D02*
X5220182Y-12295888D01*
X5220182Y-12295888D02*
X5210658Y-12314936D01*
X5210658Y-12314936D02*
X5201134Y-12324460D01*
X5201134Y-12324460D02*
X5182086Y-12333984D01*
X5182086Y-12333984D02*
X5163039Y-12333984D01*
X5163039Y-12333984D02*
X5143991Y-12324460D01*
X5143991Y-12324460D02*
X5134467Y-12314936D01*
X5134467Y-12314936D02*
X5124944Y-12295888D01*
X5124944Y-12295888D02*
X5115420Y-12257793D01*
X5115420Y-12257793D02*
X5115420Y-12210174D01*
X5115420Y-12210174D02*
X5124944Y-12172079D01*
X5124944Y-12172079D02*
X5134467Y-12153031D01*
X5134467Y-12153031D02*
X5143991Y-12143508D01*
X5143991Y-12143508D02*
X5163039Y-12133984D01*
X5315420Y-12333984D02*
X5315420Y-12200650D01*
X5315420Y-12219698D02*
X5324944Y-12210174D01*
X5324944Y-12210174D02*
X5343991Y-12200650D01*
X5343991Y-12200650D02*
X5372563Y-12200650D01*
X5372563Y-12200650D02*
X5391610Y-12210174D01*
X5391610Y-12210174D02*
X5401134Y-12229222D01*
X5401134Y-12229222D02*
X5401134Y-12333984D01*
X5401134Y-12229222D02*
X5410658Y-12210174D01*
X5410658Y-12210174D02*
X5429705Y-12200650D01*
X5429705Y-12200650D02*
X5458277Y-12200650D01*
X5458277Y-12200650D02*
X5477325Y-12210174D01*
X5477325Y-12210174D02*
X5486848Y-12229222D01*
X5486848Y-12229222D02*
X5486848Y-12333984D01*
X5582086Y-12333984D02*
X5582086Y-12200650D01*
X5582086Y-12219698D02*
X5591610Y-12210174D01*
X5591610Y-12210174D02*
X5610658Y-12200650D01*
X5610658Y-12200650D02*
X5639229Y-12200650D01*
X5639229Y-12200650D02*
X5658277Y-12210174D01*
X5658277Y-12210174D02*
X5667801Y-12229222D01*
X5667801Y-12229222D02*
X5667801Y-12333984D01*
X5667801Y-12229222D02*
X5677324Y-12210174D01*
X5677324Y-12210174D02*
X5696372Y-12200650D01*
X5696372Y-12200650D02*
X5724943Y-12200650D01*
X5724943Y-12200650D02*
X5743991Y-12210174D01*
X5743991Y-12210174D02*
X5753515Y-12229222D01*
X5753515Y-12229222D02*
X5753515Y-12333984D01*
X6143991Y-12124460D02*
X5972563Y-12381603D01*
X6401134Y-12133984D02*
X6420182Y-12133984D01*
X6420182Y-12133984D02*
X6439229Y-12143508D01*
X6439229Y-12143508D02*
X6448753Y-12153031D01*
X6448753Y-12153031D02*
X6458277Y-12172079D01*
X6458277Y-12172079D02*
X6467801Y-12210174D01*
X6467801Y-12210174D02*
X6467801Y-12257793D01*
X6467801Y-12257793D02*
X6458277Y-12295888D01*
X6458277Y-12295888D02*
X6448753Y-12314936D01*
X6448753Y-12314936D02*
X6439229Y-12324460D01*
X6439229Y-12324460D02*
X6420182Y-12333984D01*
X6420182Y-12333984D02*
X6401134Y-12333984D01*
X6401134Y-12333984D02*
X6382086Y-12324460D01*
X6382086Y-12324460D02*
X6372563Y-12314936D01*
X6372563Y-12314936D02*
X6363039Y-12295888D01*
X6363039Y-12295888D02*
X6353515Y-12257793D01*
X6353515Y-12257793D02*
X6353515Y-12210174D01*
X6353515Y-12210174D02*
X6363039Y-12172079D01*
X6363039Y-12172079D02*
X6372563Y-12153031D01*
X6372563Y-12153031D02*
X6382086Y-12143508D01*
X6382086Y-12143508D02*
X6401134Y-12133984D01*
X6553515Y-12314936D02*
X6563039Y-12324460D01*
X6563039Y-12324460D02*
X6553515Y-12333984D01*
X6553515Y-12333984D02*
X6543991Y-12324460D01*
X6543991Y-12324460D02*
X6553515Y-12314936D01*
X6553515Y-12314936D02*
X6553515Y-12333984D01*
X6686848Y-12133984D02*
X6705896Y-12133984D01*
X6705896Y-12133984D02*
X6724944Y-12143508D01*
X6724944Y-12143508D02*
X6734467Y-12153031D01*
X6734467Y-12153031D02*
X6743991Y-12172079D01*
X6743991Y-12172079D02*
X6753515Y-12210174D01*
X6753515Y-12210174D02*
X6753515Y-12257793D01*
X6753515Y-12257793D02*
X6743991Y-12295888D01*
X6743991Y-12295888D02*
X6734467Y-12314936D01*
X6734467Y-12314936D02*
X6724944Y-12324460D01*
X6724944Y-12324460D02*
X6705896Y-12333984D01*
X6705896Y-12333984D02*
X6686848Y-12333984D01*
X6686848Y-12333984D02*
X6667801Y-12324460D01*
X6667801Y-12324460D02*
X6658277Y-12314936D01*
X6658277Y-12314936D02*
X6648753Y-12295888D01*
X6648753Y-12295888D02*
X6639229Y-12257793D01*
X6639229Y-12257793D02*
X6639229Y-12210174D01*
X6639229Y-12210174D02*
X6648753Y-12172079D01*
X6648753Y-12172079D02*
X6658277Y-12153031D01*
X6658277Y-12153031D02*
X6667801Y-12143508D01*
X6667801Y-12143508D02*
X6686848Y-12133984D01*
X6934467Y-12133984D02*
X6839229Y-12133984D01*
X6839229Y-12133984D02*
X6829706Y-12229222D01*
X6829706Y-12229222D02*
X6839229Y-12219698D01*
X6839229Y-12219698D02*
X6858277Y-12210174D01*
X6858277Y-12210174D02*
X6905896Y-12210174D01*
X6905896Y-12210174D02*
X6924944Y-12219698D01*
X6924944Y-12219698D02*
X6934467Y-12229222D01*
X6934467Y-12229222D02*
X6943991Y-12248269D01*
X6943991Y-12248269D02*
X6943991Y-12295888D01*
X6943991Y-12295888D02*
X6934467Y-12314936D01*
X6934467Y-12314936D02*
X6924944Y-12324460D01*
X6924944Y-12324460D02*
X6905896Y-12333984D01*
X6905896Y-12333984D02*
X6858277Y-12333984D01*
X6858277Y-12333984D02*
X6839229Y-12324460D01*
X6839229Y-12324460D02*
X6829706Y-12314936D01*
X7039229Y-12333984D02*
X7077325Y-12333984D01*
X7077325Y-12333984D02*
X7096372Y-12324460D01*
X7096372Y-12324460D02*
X7105896Y-12314936D01*
X7105896Y-12314936D02*
X7124944Y-12286365D01*
X7124944Y-12286365D02*
X7134467Y-12248269D01*
X7134467Y-12248269D02*
X7134467Y-12172079D01*
X7134467Y-12172079D02*
X7124944Y-12153031D01*
X7124944Y-12153031D02*
X7115420Y-12143508D01*
X7115420Y-12143508D02*
X7096372Y-12133984D01*
X7096372Y-12133984D02*
X7058277Y-12133984D01*
X7058277Y-12133984D02*
X7039229Y-12143508D01*
X7039229Y-12143508D02*
X7029706Y-12153031D01*
X7029706Y-12153031D02*
X7020182Y-12172079D01*
X7020182Y-12172079D02*
X7020182Y-12219698D01*
X7020182Y-12219698D02*
X7029706Y-12238746D01*
X7029706Y-12238746D02*
X7039229Y-12248269D01*
X7039229Y-12248269D02*
X7058277Y-12257793D01*
X7058277Y-12257793D02*
X7096372Y-12257793D01*
X7096372Y-12257793D02*
X7115420Y-12248269D01*
X7115420Y-12248269D02*
X7124944Y-12238746D01*
X7124944Y-12238746D02*
X7134467Y-12219698D01*
X7324944Y-12333984D02*
X7210658Y-12333984D01*
X7267801Y-12333984D02*
X7267801Y-12133984D01*
X7267801Y-12133984D02*
X7248753Y-12162555D01*
X7248753Y-12162555D02*
X7229706Y-12181603D01*
X7229706Y-12181603D02*
X7210658Y-12191127D01*
X7401134Y-12133984D02*
X7401134Y-12172079D01*
X7477325Y-12133984D02*
X7477325Y-12172079D01*
X7772563Y-12410174D02*
X7763039Y-12400650D01*
X7763039Y-12400650D02*
X7743991Y-12372079D01*
X7743991Y-12372079D02*
X7734468Y-12353031D01*
X7734468Y-12353031D02*
X7724944Y-12324460D01*
X7724944Y-12324460D02*
X7715420Y-12276841D01*
X7715420Y-12276841D02*
X7715420Y-12238746D01*
X7715420Y-12238746D02*
X7724944Y-12191127D01*
X7724944Y-12191127D02*
X7734468Y-12162555D01*
X7734468Y-12162555D02*
X7743991Y-12143508D01*
X7743991Y-12143508D02*
X7763039Y-12114936D01*
X7763039Y-12114936D02*
X7772563Y-12105412D01*
X7839229Y-12153031D02*
X7848753Y-12143508D01*
X7848753Y-12143508D02*
X7867801Y-12133984D01*
X7867801Y-12133984D02*
X7915420Y-12133984D01*
X7915420Y-12133984D02*
X7934468Y-12143508D01*
X7934468Y-12143508D02*
X7943991Y-12153031D01*
X7943991Y-12153031D02*
X7953515Y-12172079D01*
X7953515Y-12172079D02*
X7953515Y-12191127D01*
X7953515Y-12191127D02*
X7943991Y-12219698D01*
X7943991Y-12219698D02*
X7829706Y-12333984D01*
X7829706Y-12333984D02*
X7953515Y-12333984D01*
X8191610Y-12333984D02*
X8191610Y-12133984D01*
X8277325Y-12333984D02*
X8277325Y-12229222D01*
X8277325Y-12229222D02*
X8267801Y-12210174D01*
X8267801Y-12210174D02*
X8248753Y-12200650D01*
X8248753Y-12200650D02*
X8220182Y-12200650D01*
X8220182Y-12200650D02*
X8201134Y-12210174D01*
X8201134Y-12210174D02*
X8191610Y-12219698D01*
X8401134Y-12333984D02*
X8382087Y-12324460D01*
X8382087Y-12324460D02*
X8372563Y-12314936D01*
X8372563Y-12314936D02*
X8363039Y-12295888D01*
X8363039Y-12295888D02*
X8363039Y-12238746D01*
X8363039Y-12238746D02*
X8372563Y-12219698D01*
X8372563Y-12219698D02*
X8382087Y-12210174D01*
X8382087Y-12210174D02*
X8401134Y-12200650D01*
X8401134Y-12200650D02*
X8429706Y-12200650D01*
X8429706Y-12200650D02*
X8448753Y-12210174D01*
X8448753Y-12210174D02*
X8458277Y-12219698D01*
X8458277Y-12219698D02*
X8467801Y-12238746D01*
X8467801Y-12238746D02*
X8467801Y-12295888D01*
X8467801Y-12295888D02*
X8458277Y-12314936D01*
X8458277Y-12314936D02*
X8448753Y-12324460D01*
X8448753Y-12324460D02*
X8429706Y-12333984D01*
X8429706Y-12333984D02*
X8401134Y-12333984D01*
X8582087Y-12333984D02*
X8563039Y-12324460D01*
X8563039Y-12324460D02*
X8553515Y-12305412D01*
X8553515Y-12305412D02*
X8553515Y-12133984D01*
X8734468Y-12324460D02*
X8715420Y-12333984D01*
X8715420Y-12333984D02*
X8677325Y-12333984D01*
X8677325Y-12333984D02*
X8658277Y-12324460D01*
X8658277Y-12324460D02*
X8648753Y-12305412D01*
X8648753Y-12305412D02*
X8648753Y-12229222D01*
X8648753Y-12229222D02*
X8658277Y-12210174D01*
X8658277Y-12210174D02*
X8677325Y-12200650D01*
X8677325Y-12200650D02*
X8715420Y-12200650D01*
X8715420Y-12200650D02*
X8734468Y-12210174D01*
X8734468Y-12210174D02*
X8743992Y-12229222D01*
X8743992Y-12229222D02*
X8743992Y-12248269D01*
X8743992Y-12248269D02*
X8648753Y-12267317D01*
X8820182Y-12324460D02*
X8839230Y-12333984D01*
X8839230Y-12333984D02*
X8877325Y-12333984D01*
X8877325Y-12333984D02*
X8896373Y-12324460D01*
X8896373Y-12324460D02*
X8905896Y-12305412D01*
X8905896Y-12305412D02*
X8905896Y-12295888D01*
X8905896Y-12295888D02*
X8896373Y-12276841D01*
X8896373Y-12276841D02*
X8877325Y-12267317D01*
X8877325Y-12267317D02*
X8848753Y-12267317D01*
X8848753Y-12267317D02*
X8829706Y-12257793D01*
X8829706Y-12257793D02*
X8820182Y-12238746D01*
X8820182Y-12238746D02*
X8820182Y-12229222D01*
X8820182Y-12229222D02*
X8829706Y-12210174D01*
X8829706Y-12210174D02*
X8848753Y-12200650D01*
X8848753Y-12200650D02*
X8877325Y-12200650D01*
X8877325Y-12200650D02*
X8896373Y-12210174D01*
X8972563Y-12410174D02*
X8982087Y-12400650D01*
X8982087Y-12400650D02*
X9001134Y-12372079D01*
X9001134Y-12372079D02*
X9010658Y-12353031D01*
X9010658Y-12353031D02*
X9020182Y-12324460D01*
X9020182Y-12324460D02*
X9029706Y-12276841D01*
X9029706Y-12276841D02*
X9029706Y-12238746D01*
X9029706Y-12238746D02*
X9020182Y-12191127D01*
X9020182Y-12191127D02*
X9010658Y-12162555D01*
X9010658Y-12162555D02*
X9001134Y-12143508D01*
X9001134Y-12143508D02*
X8982087Y-12114936D01*
X8982087Y-12114936D02*
X8972563Y-12105412D01*
X9334468Y-12410174D02*
X9324944Y-12400650D01*
X9324944Y-12400650D02*
X9305896Y-12372079D01*
X9305896Y-12372079D02*
X9296373Y-12353031D01*
X9296373Y-12353031D02*
X9286849Y-12324460D01*
X9286849Y-12324460D02*
X9277325Y-12276841D01*
X9277325Y-12276841D02*
X9277325Y-12238746D01*
X9277325Y-12238746D02*
X9286849Y-12191127D01*
X9286849Y-12191127D02*
X9296373Y-12162555D01*
X9296373Y-12162555D02*
X9305896Y-12143508D01*
X9305896Y-12143508D02*
X9324944Y-12114936D01*
X9324944Y-12114936D02*
X9334468Y-12105412D01*
X9410658Y-12200650D02*
X9410658Y-12333984D01*
X9410658Y-12219698D02*
X9420182Y-12210174D01*
X9420182Y-12210174D02*
X9439230Y-12200650D01*
X9439230Y-12200650D02*
X9467801Y-12200650D01*
X9467801Y-12200650D02*
X9486849Y-12210174D01*
X9486849Y-12210174D02*
X9496373Y-12229222D01*
X9496373Y-12229222D02*
X9496373Y-12333984D01*
X9620182Y-12333984D02*
X9601134Y-12324460D01*
X9601134Y-12324460D02*
X9591611Y-12314936D01*
X9591611Y-12314936D02*
X9582087Y-12295888D01*
X9582087Y-12295888D02*
X9582087Y-12238746D01*
X9582087Y-12238746D02*
X9591611Y-12219698D01*
X9591611Y-12219698D02*
X9601134Y-12210174D01*
X9601134Y-12210174D02*
X9620182Y-12200650D01*
X9620182Y-12200650D02*
X9648754Y-12200650D01*
X9648754Y-12200650D02*
X9667801Y-12210174D01*
X9667801Y-12210174D02*
X9677325Y-12219698D01*
X9677325Y-12219698D02*
X9686849Y-12238746D01*
X9686849Y-12238746D02*
X9686849Y-12295888D01*
X9686849Y-12295888D02*
X9677325Y-12314936D01*
X9677325Y-12314936D02*
X9667801Y-12324460D01*
X9667801Y-12324460D02*
X9648754Y-12333984D01*
X9648754Y-12333984D02*
X9620182Y-12333984D01*
X9743992Y-12200650D02*
X9820182Y-12200650D01*
X9772563Y-12133984D02*
X9772563Y-12305412D01*
X9772563Y-12305412D02*
X9782087Y-12324460D01*
X9782087Y-12324460D02*
X9801134Y-12333984D01*
X9801134Y-12333984D02*
X9820182Y-12333984D01*
X10039230Y-12200650D02*
X10039230Y-12400650D01*
X10039230Y-12210174D02*
X10058277Y-12200650D01*
X10058277Y-12200650D02*
X10096373Y-12200650D01*
X10096373Y-12200650D02*
X10115420Y-12210174D01*
X10115420Y-12210174D02*
X10124944Y-12219698D01*
X10124944Y-12219698D02*
X10134468Y-12238746D01*
X10134468Y-12238746D02*
X10134468Y-12295888D01*
X10134468Y-12295888D02*
X10124944Y-12314936D01*
X10124944Y-12314936D02*
X10115420Y-12324460D01*
X10115420Y-12324460D02*
X10096373Y-12333984D01*
X10096373Y-12333984D02*
X10058277Y-12333984D01*
X10058277Y-12333984D02*
X10039230Y-12324460D01*
X10248754Y-12333984D02*
X10229706Y-12324460D01*
X10229706Y-12324460D02*
X10220182Y-12305412D01*
X10220182Y-12305412D02*
X10220182Y-12133984D01*
X10410658Y-12333984D02*
X10410658Y-12229222D01*
X10410658Y-12229222D02*
X10401135Y-12210174D01*
X10401135Y-12210174D02*
X10382087Y-12200650D01*
X10382087Y-12200650D02*
X10343992Y-12200650D01*
X10343992Y-12200650D02*
X10324944Y-12210174D01*
X10410658Y-12324460D02*
X10391611Y-12333984D01*
X10391611Y-12333984D02*
X10343992Y-12333984D01*
X10343992Y-12333984D02*
X10324944Y-12324460D01*
X10324944Y-12324460D02*
X10315420Y-12305412D01*
X10315420Y-12305412D02*
X10315420Y-12286365D01*
X10315420Y-12286365D02*
X10324944Y-12267317D01*
X10324944Y-12267317D02*
X10343992Y-12257793D01*
X10343992Y-12257793D02*
X10391611Y-12257793D01*
X10391611Y-12257793D02*
X10410658Y-12248269D01*
X10477325Y-12200650D02*
X10553515Y-12200650D01*
X10505896Y-12133984D02*
X10505896Y-12305412D01*
X10505896Y-12305412D02*
X10515420Y-12324460D01*
X10515420Y-12324460D02*
X10534468Y-12333984D01*
X10534468Y-12333984D02*
X10553515Y-12333984D01*
X10696373Y-12324460D02*
X10677325Y-12333984D01*
X10677325Y-12333984D02*
X10639230Y-12333984D01*
X10639230Y-12333984D02*
X10620182Y-12324460D01*
X10620182Y-12324460D02*
X10610658Y-12305412D01*
X10610658Y-12305412D02*
X10610658Y-12229222D01*
X10610658Y-12229222D02*
X10620182Y-12210174D01*
X10620182Y-12210174D02*
X10639230Y-12200650D01*
X10639230Y-12200650D02*
X10677325Y-12200650D01*
X10677325Y-12200650D02*
X10696373Y-12210174D01*
X10696373Y-12210174D02*
X10705896Y-12229222D01*
X10705896Y-12229222D02*
X10705896Y-12248269D01*
X10705896Y-12248269D02*
X10610658Y-12267317D01*
X10877325Y-12333984D02*
X10877325Y-12133984D01*
X10877325Y-12324460D02*
X10858277Y-12333984D01*
X10858277Y-12333984D02*
X10820182Y-12333984D01*
X10820182Y-12333984D02*
X10801135Y-12324460D01*
X10801135Y-12324460D02*
X10791611Y-12314936D01*
X10791611Y-12314936D02*
X10782087Y-12295888D01*
X10782087Y-12295888D02*
X10782087Y-12238746D01*
X10782087Y-12238746D02*
X10791611Y-12219698D01*
X10791611Y-12219698D02*
X10801135Y-12210174D01*
X10801135Y-12210174D02*
X10820182Y-12200650D01*
X10820182Y-12200650D02*
X10858277Y-12200650D01*
X10858277Y-12200650D02*
X10877325Y-12210174D01*
X10953516Y-12410174D02*
X10963039Y-12400650D01*
X10963039Y-12400650D02*
X10982087Y-12372079D01*
X10982087Y-12372079D02*
X10991611Y-12353031D01*
X10991611Y-12353031D02*
X11001135Y-12324460D01*
X11001135Y-12324460D02*
X11010658Y-12276841D01*
X11010658Y-12276841D02*
X11010658Y-12238746D01*
X11010658Y-12238746D02*
X11001135Y-12191127D01*
X11001135Y-12191127D02*
X10991611Y-12162555D01*
X10991611Y-12162555D02*
X10982087Y-12143508D01*
X10982087Y-12143508D02*
X10963039Y-12114936D01*
X10963039Y-12114936D02*
X10953516Y-12105412D01*
X4197500Y-12512500D02*
G75*
G02*
X3997500Y-12512500I-100000J0D01*
G01*
X3997500Y-12512500D02*
G75*
G02*
X4197500Y-12512500I100000J0D01*
G01*
X4448753Y-12423031D02*
X4458277Y-12413508D01*
X4458277Y-12413508D02*
X4477324Y-12403984D01*
X4477324Y-12403984D02*
X4524944Y-12403984D01*
X4524944Y-12403984D02*
X4543991Y-12413508D01*
X4543991Y-12413508D02*
X4553515Y-12423031D01*
X4553515Y-12423031D02*
X4563039Y-12442079D01*
X4563039Y-12442079D02*
X4563039Y-12461127D01*
X4563039Y-12461127D02*
X4553515Y-12489698D01*
X4553515Y-12489698D02*
X4439229Y-12603984D01*
X4439229Y-12603984D02*
X4563039Y-12603984D01*
X4648753Y-12584936D02*
X4658277Y-12594460D01*
X4658277Y-12594460D02*
X4648753Y-12603984D01*
X4648753Y-12603984D02*
X4639229Y-12594460D01*
X4639229Y-12594460D02*
X4648753Y-12584936D01*
X4648753Y-12584936D02*
X4648753Y-12603984D01*
X4734467Y-12423031D02*
X4743991Y-12413508D01*
X4743991Y-12413508D02*
X4763039Y-12403984D01*
X4763039Y-12403984D02*
X4810658Y-12403984D01*
X4810658Y-12403984D02*
X4829705Y-12413508D01*
X4829705Y-12413508D02*
X4839229Y-12423031D01*
X4839229Y-12423031D02*
X4848753Y-12442079D01*
X4848753Y-12442079D02*
X4848753Y-12461127D01*
X4848753Y-12461127D02*
X4839229Y-12489698D01*
X4839229Y-12489698D02*
X4724944Y-12603984D01*
X4724944Y-12603984D02*
X4848753Y-12603984D01*
X4972563Y-12403984D02*
X4991610Y-12403984D01*
X4991610Y-12403984D02*
X5010658Y-12413508D01*
X5010658Y-12413508D02*
X5020182Y-12423031D01*
X5020182Y-12423031D02*
X5029705Y-12442079D01*
X5029705Y-12442079D02*
X5039229Y-12480174D01*
X5039229Y-12480174D02*
X5039229Y-12527793D01*
X5039229Y-12527793D02*
X5029705Y-12565888D01*
X5029705Y-12565888D02*
X5020182Y-12584936D01*
X5020182Y-12584936D02*
X5010658Y-12594460D01*
X5010658Y-12594460D02*
X4991610Y-12603984D01*
X4991610Y-12603984D02*
X4972563Y-12603984D01*
X4972563Y-12603984D02*
X4953515Y-12594460D01*
X4953515Y-12594460D02*
X4943991Y-12584936D01*
X4943991Y-12584936D02*
X4934467Y-12565888D01*
X4934467Y-12565888D02*
X4924944Y-12527793D01*
X4924944Y-12527793D02*
X4924944Y-12480174D01*
X4924944Y-12480174D02*
X4934467Y-12442079D01*
X4934467Y-12442079D02*
X4943991Y-12423031D01*
X4943991Y-12423031D02*
X4953515Y-12413508D01*
X4953515Y-12413508D02*
X4972563Y-12403984D01*
X5163039Y-12403984D02*
X5182086Y-12403984D01*
X5182086Y-12403984D02*
X5201134Y-12413508D01*
X5201134Y-12413508D02*
X5210658Y-12423031D01*
X5210658Y-12423031D02*
X5220182Y-12442079D01*
X5220182Y-12442079D02*
X5229705Y-12480174D01*
X5229705Y-12480174D02*
X5229705Y-12527793D01*
X5229705Y-12527793D02*
X5220182Y-12565888D01*
X5220182Y-12565888D02*
X5210658Y-12584936D01*
X5210658Y-12584936D02*
X5201134Y-12594460D01*
X5201134Y-12594460D02*
X5182086Y-12603984D01*
X5182086Y-12603984D02*
X5163039Y-12603984D01*
X5163039Y-12603984D02*
X5143991Y-12594460D01*
X5143991Y-12594460D02*
X5134467Y-12584936D01*
X5134467Y-12584936D02*
X5124944Y-12565888D01*
X5124944Y-12565888D02*
X5115420Y-12527793D01*
X5115420Y-12527793D02*
X5115420Y-12480174D01*
X5115420Y-12480174D02*
X5124944Y-12442079D01*
X5124944Y-12442079D02*
X5134467Y-12423031D01*
X5134467Y-12423031D02*
X5143991Y-12413508D01*
X5143991Y-12413508D02*
X5163039Y-12403984D01*
X5315420Y-12603984D02*
X5315420Y-12470650D01*
X5315420Y-12489698D02*
X5324944Y-12480174D01*
X5324944Y-12480174D02*
X5343991Y-12470650D01*
X5343991Y-12470650D02*
X5372563Y-12470650D01*
X5372563Y-12470650D02*
X5391610Y-12480174D01*
X5391610Y-12480174D02*
X5401134Y-12499222D01*
X5401134Y-12499222D02*
X5401134Y-12603984D01*
X5401134Y-12499222D02*
X5410658Y-12480174D01*
X5410658Y-12480174D02*
X5429705Y-12470650D01*
X5429705Y-12470650D02*
X5458277Y-12470650D01*
X5458277Y-12470650D02*
X5477325Y-12480174D01*
X5477325Y-12480174D02*
X5486848Y-12499222D01*
X5486848Y-12499222D02*
X5486848Y-12603984D01*
X5582086Y-12603984D02*
X5582086Y-12470650D01*
X5582086Y-12489698D02*
X5591610Y-12480174D01*
X5591610Y-12480174D02*
X5610658Y-12470650D01*
X5610658Y-12470650D02*
X5639229Y-12470650D01*
X5639229Y-12470650D02*
X5658277Y-12480174D01*
X5658277Y-12480174D02*
X5667801Y-12499222D01*
X5667801Y-12499222D02*
X5667801Y-12603984D01*
X5667801Y-12499222D02*
X5677324Y-12480174D01*
X5677324Y-12480174D02*
X5696372Y-12470650D01*
X5696372Y-12470650D02*
X5724943Y-12470650D01*
X5724943Y-12470650D02*
X5743991Y-12480174D01*
X5743991Y-12480174D02*
X5753515Y-12499222D01*
X5753515Y-12499222D02*
X5753515Y-12603984D01*
X6143991Y-12394460D02*
X5972563Y-12651603D01*
X6401134Y-12403984D02*
X6420182Y-12403984D01*
X6420182Y-12403984D02*
X6439229Y-12413508D01*
X6439229Y-12413508D02*
X6448753Y-12423031D01*
X6448753Y-12423031D02*
X6458277Y-12442079D01*
X6458277Y-12442079D02*
X6467801Y-12480174D01*
X6467801Y-12480174D02*
X6467801Y-12527793D01*
X6467801Y-12527793D02*
X6458277Y-12565888D01*
X6458277Y-12565888D02*
X6448753Y-12584936D01*
X6448753Y-12584936D02*
X6439229Y-12594460D01*
X6439229Y-12594460D02*
X6420182Y-12603984D01*
X6420182Y-12603984D02*
X6401134Y-12603984D01*
X6401134Y-12603984D02*
X6382086Y-12594460D01*
X6382086Y-12594460D02*
X6372563Y-12584936D01*
X6372563Y-12584936D02*
X6363039Y-12565888D01*
X6363039Y-12565888D02*
X6353515Y-12527793D01*
X6353515Y-12527793D02*
X6353515Y-12480174D01*
X6353515Y-12480174D02*
X6363039Y-12442079D01*
X6363039Y-12442079D02*
X6372563Y-12423031D01*
X6372563Y-12423031D02*
X6382086Y-12413508D01*
X6382086Y-12413508D02*
X6401134Y-12403984D01*
X6553515Y-12584936D02*
X6563039Y-12594460D01*
X6563039Y-12594460D02*
X6553515Y-12603984D01*
X6553515Y-12603984D02*
X6543991Y-12594460D01*
X6543991Y-12594460D02*
X6553515Y-12584936D01*
X6553515Y-12584936D02*
X6553515Y-12603984D01*
X6686848Y-12403984D02*
X6705896Y-12403984D01*
X6705896Y-12403984D02*
X6724944Y-12413508D01*
X6724944Y-12413508D02*
X6734467Y-12423031D01*
X6734467Y-12423031D02*
X6743991Y-12442079D01*
X6743991Y-12442079D02*
X6753515Y-12480174D01*
X6753515Y-12480174D02*
X6753515Y-12527793D01*
X6753515Y-12527793D02*
X6743991Y-12565888D01*
X6743991Y-12565888D02*
X6734467Y-12584936D01*
X6734467Y-12584936D02*
X6724944Y-12594460D01*
X6724944Y-12594460D02*
X6705896Y-12603984D01*
X6705896Y-12603984D02*
X6686848Y-12603984D01*
X6686848Y-12603984D02*
X6667801Y-12594460D01*
X6667801Y-12594460D02*
X6658277Y-12584936D01*
X6658277Y-12584936D02*
X6648753Y-12565888D01*
X6648753Y-12565888D02*
X6639229Y-12527793D01*
X6639229Y-12527793D02*
X6639229Y-12480174D01*
X6639229Y-12480174D02*
X6648753Y-12442079D01*
X6648753Y-12442079D02*
X6658277Y-12423031D01*
X6658277Y-12423031D02*
X6667801Y-12413508D01*
X6667801Y-12413508D02*
X6686848Y-12403984D01*
X6867801Y-12489698D02*
X6848753Y-12480174D01*
X6848753Y-12480174D02*
X6839229Y-12470650D01*
X6839229Y-12470650D02*
X6829706Y-12451603D01*
X6829706Y-12451603D02*
X6829706Y-12442079D01*
X6829706Y-12442079D02*
X6839229Y-12423031D01*
X6839229Y-12423031D02*
X6848753Y-12413508D01*
X6848753Y-12413508D02*
X6867801Y-12403984D01*
X6867801Y-12403984D02*
X6905896Y-12403984D01*
X6905896Y-12403984D02*
X6924944Y-12413508D01*
X6924944Y-12413508D02*
X6934467Y-12423031D01*
X6934467Y-12423031D02*
X6943991Y-12442079D01*
X6943991Y-12442079D02*
X6943991Y-12451603D01*
X6943991Y-12451603D02*
X6934467Y-12470650D01*
X6934467Y-12470650D02*
X6924944Y-12480174D01*
X6924944Y-12480174D02*
X6905896Y-12489698D01*
X6905896Y-12489698D02*
X6867801Y-12489698D01*
X6867801Y-12489698D02*
X6848753Y-12499222D01*
X6848753Y-12499222D02*
X6839229Y-12508746D01*
X6839229Y-12508746D02*
X6829706Y-12527793D01*
X6829706Y-12527793D02*
X6829706Y-12565888D01*
X6829706Y-12565888D02*
X6839229Y-12584936D01*
X6839229Y-12584936D02*
X6848753Y-12594460D01*
X6848753Y-12594460D02*
X6867801Y-12603984D01*
X6867801Y-12603984D02*
X6905896Y-12603984D01*
X6905896Y-12603984D02*
X6924944Y-12594460D01*
X6924944Y-12594460D02*
X6934467Y-12584936D01*
X6934467Y-12584936D02*
X6943991Y-12565888D01*
X6943991Y-12565888D02*
X6943991Y-12527793D01*
X6943991Y-12527793D02*
X6934467Y-12508746D01*
X6934467Y-12508746D02*
X6924944Y-12499222D01*
X6924944Y-12499222D02*
X6905896Y-12489698D01*
X7115420Y-12403984D02*
X7077325Y-12403984D01*
X7077325Y-12403984D02*
X7058277Y-12413508D01*
X7058277Y-12413508D02*
X7048753Y-12423031D01*
X7048753Y-12423031D02*
X7029706Y-12451603D01*
X7029706Y-12451603D02*
X7020182Y-12489698D01*
X7020182Y-12489698D02*
X7020182Y-12565888D01*
X7020182Y-12565888D02*
X7029706Y-12584936D01*
X7029706Y-12584936D02*
X7039229Y-12594460D01*
X7039229Y-12594460D02*
X7058277Y-12603984D01*
X7058277Y-12603984D02*
X7096372Y-12603984D01*
X7096372Y-12603984D02*
X7115420Y-12594460D01*
X7115420Y-12594460D02*
X7124944Y-12584936D01*
X7124944Y-12584936D02*
X7134467Y-12565888D01*
X7134467Y-12565888D02*
X7134467Y-12518269D01*
X7134467Y-12518269D02*
X7124944Y-12499222D01*
X7124944Y-12499222D02*
X7115420Y-12489698D01*
X7115420Y-12489698D02*
X7096372Y-12480174D01*
X7096372Y-12480174D02*
X7058277Y-12480174D01*
X7058277Y-12480174D02*
X7039229Y-12489698D01*
X7039229Y-12489698D02*
X7029706Y-12499222D01*
X7029706Y-12499222D02*
X7020182Y-12518269D01*
X7305896Y-12403984D02*
X7267801Y-12403984D01*
X7267801Y-12403984D02*
X7248753Y-12413508D01*
X7248753Y-12413508D02*
X7239229Y-12423031D01*
X7239229Y-12423031D02*
X7220182Y-12451603D01*
X7220182Y-12451603D02*
X7210658Y-12489698D01*
X7210658Y-12489698D02*
X7210658Y-12565888D01*
X7210658Y-12565888D02*
X7220182Y-12584936D01*
X7220182Y-12584936D02*
X7229706Y-12594460D01*
X7229706Y-12594460D02*
X7248753Y-12603984D01*
X7248753Y-12603984D02*
X7286848Y-12603984D01*
X7286848Y-12603984D02*
X7305896Y-12594460D01*
X7305896Y-12594460D02*
X7315420Y-12584936D01*
X7315420Y-12584936D02*
X7324944Y-12565888D01*
X7324944Y-12565888D02*
X7324944Y-12518269D01*
X7324944Y-12518269D02*
X7315420Y-12499222D01*
X7315420Y-12499222D02*
X7305896Y-12489698D01*
X7305896Y-12489698D02*
X7286848Y-12480174D01*
X7286848Y-12480174D02*
X7248753Y-12480174D01*
X7248753Y-12480174D02*
X7229706Y-12489698D01*
X7229706Y-12489698D02*
X7220182Y-12499222D01*
X7220182Y-12499222D02*
X7210658Y-12518269D01*
X7401134Y-12403984D02*
X7401134Y-12442079D01*
X7477325Y-12403984D02*
X7477325Y-12442079D01*
X7772563Y-12680174D02*
X7763039Y-12670650D01*
X7763039Y-12670650D02*
X7743991Y-12642079D01*
X7743991Y-12642079D02*
X7734468Y-12623031D01*
X7734468Y-12623031D02*
X7724944Y-12594460D01*
X7724944Y-12594460D02*
X7715420Y-12546841D01*
X7715420Y-12546841D02*
X7715420Y-12508746D01*
X7715420Y-12508746D02*
X7724944Y-12461127D01*
X7724944Y-12461127D02*
X7734468Y-12432555D01*
X7734468Y-12432555D02*
X7743991Y-12413508D01*
X7743991Y-12413508D02*
X7763039Y-12384936D01*
X7763039Y-12384936D02*
X7772563Y-12375412D01*
X7934468Y-12470650D02*
X7934468Y-12603984D01*
X7886848Y-12394460D02*
X7839229Y-12537317D01*
X7839229Y-12537317D02*
X7963039Y-12537317D01*
X8191610Y-12603984D02*
X8191610Y-12403984D01*
X8277325Y-12603984D02*
X8277325Y-12499222D01*
X8277325Y-12499222D02*
X8267801Y-12480174D01*
X8267801Y-12480174D02*
X8248753Y-12470650D01*
X8248753Y-12470650D02*
X8220182Y-12470650D01*
X8220182Y-12470650D02*
X8201134Y-12480174D01*
X8201134Y-12480174D02*
X8191610Y-12489698D01*
X8401134Y-12603984D02*
X8382087Y-12594460D01*
X8382087Y-12594460D02*
X8372563Y-12584936D01*
X8372563Y-12584936D02*
X8363039Y-12565888D01*
X8363039Y-12565888D02*
X8363039Y-12508746D01*
X8363039Y-12508746D02*
X8372563Y-12489698D01*
X8372563Y-12489698D02*
X8382087Y-12480174D01*
X8382087Y-12480174D02*
X8401134Y-12470650D01*
X8401134Y-12470650D02*
X8429706Y-12470650D01*
X8429706Y-12470650D02*
X8448753Y-12480174D01*
X8448753Y-12480174D02*
X8458277Y-12489698D01*
X8458277Y-12489698D02*
X8467801Y-12508746D01*
X8467801Y-12508746D02*
X8467801Y-12565888D01*
X8467801Y-12565888D02*
X8458277Y-12584936D01*
X8458277Y-12584936D02*
X8448753Y-12594460D01*
X8448753Y-12594460D02*
X8429706Y-12603984D01*
X8429706Y-12603984D02*
X8401134Y-12603984D01*
X8582087Y-12603984D02*
X8563039Y-12594460D01*
X8563039Y-12594460D02*
X8553515Y-12575412D01*
X8553515Y-12575412D02*
X8553515Y-12403984D01*
X8734468Y-12594460D02*
X8715420Y-12603984D01*
X8715420Y-12603984D02*
X8677325Y-12603984D01*
X8677325Y-12603984D02*
X8658277Y-12594460D01*
X8658277Y-12594460D02*
X8648753Y-12575412D01*
X8648753Y-12575412D02*
X8648753Y-12499222D01*
X8648753Y-12499222D02*
X8658277Y-12480174D01*
X8658277Y-12480174D02*
X8677325Y-12470650D01*
X8677325Y-12470650D02*
X8715420Y-12470650D01*
X8715420Y-12470650D02*
X8734468Y-12480174D01*
X8734468Y-12480174D02*
X8743992Y-12499222D01*
X8743992Y-12499222D02*
X8743992Y-12518269D01*
X8743992Y-12518269D02*
X8648753Y-12537317D01*
X8820182Y-12594460D02*
X8839230Y-12603984D01*
X8839230Y-12603984D02*
X8877325Y-12603984D01*
X8877325Y-12603984D02*
X8896373Y-12594460D01*
X8896373Y-12594460D02*
X8905896Y-12575412D01*
X8905896Y-12575412D02*
X8905896Y-12565888D01*
X8905896Y-12565888D02*
X8896373Y-12546841D01*
X8896373Y-12546841D02*
X8877325Y-12537317D01*
X8877325Y-12537317D02*
X8848753Y-12537317D01*
X8848753Y-12537317D02*
X8829706Y-12527793D01*
X8829706Y-12527793D02*
X8820182Y-12508746D01*
X8820182Y-12508746D02*
X8820182Y-12499222D01*
X8820182Y-12499222D02*
X8829706Y-12480174D01*
X8829706Y-12480174D02*
X8848753Y-12470650D01*
X8848753Y-12470650D02*
X8877325Y-12470650D01*
X8877325Y-12470650D02*
X8896373Y-12480174D01*
X8972563Y-12680174D02*
X8982087Y-12670650D01*
X8982087Y-12670650D02*
X9001134Y-12642079D01*
X9001134Y-12642079D02*
X9010658Y-12623031D01*
X9010658Y-12623031D02*
X9020182Y-12594460D01*
X9020182Y-12594460D02*
X9029706Y-12546841D01*
X9029706Y-12546841D02*
X9029706Y-12508746D01*
X9029706Y-12508746D02*
X9020182Y-12461127D01*
X9020182Y-12461127D02*
X9010658Y-12432555D01*
X9010658Y-12432555D02*
X9001134Y-12413508D01*
X9001134Y-12413508D02*
X8982087Y-12384936D01*
X8982087Y-12384936D02*
X8972563Y-12375412D01*
X9334468Y-12680174D02*
X9324944Y-12670650D01*
X9324944Y-12670650D02*
X9305896Y-12642079D01*
X9305896Y-12642079D02*
X9296373Y-12623031D01*
X9296373Y-12623031D02*
X9286849Y-12594460D01*
X9286849Y-12594460D02*
X9277325Y-12546841D01*
X9277325Y-12546841D02*
X9277325Y-12508746D01*
X9277325Y-12508746D02*
X9286849Y-12461127D01*
X9286849Y-12461127D02*
X9296373Y-12432555D01*
X9296373Y-12432555D02*
X9305896Y-12413508D01*
X9305896Y-12413508D02*
X9324944Y-12384936D01*
X9324944Y-12384936D02*
X9334468Y-12375412D01*
X9410658Y-12470650D02*
X9410658Y-12603984D01*
X9410658Y-12489698D02*
X9420182Y-12480174D01*
X9420182Y-12480174D02*
X9439230Y-12470650D01*
X9439230Y-12470650D02*
X9467801Y-12470650D01*
X9467801Y-12470650D02*
X9486849Y-12480174D01*
X9486849Y-12480174D02*
X9496373Y-12499222D01*
X9496373Y-12499222D02*
X9496373Y-12603984D01*
X9620182Y-12603984D02*
X9601134Y-12594460D01*
X9601134Y-12594460D02*
X9591611Y-12584936D01*
X9591611Y-12584936D02*
X9582087Y-12565888D01*
X9582087Y-12565888D02*
X9582087Y-12508746D01*
X9582087Y-12508746D02*
X9591611Y-12489698D01*
X9591611Y-12489698D02*
X9601134Y-12480174D01*
X9601134Y-12480174D02*
X9620182Y-12470650D01*
X9620182Y-12470650D02*
X9648754Y-12470650D01*
X9648754Y-12470650D02*
X9667801Y-12480174D01*
X9667801Y-12480174D02*
X9677325Y-12489698D01*
X9677325Y-12489698D02*
X9686849Y-12508746D01*
X9686849Y-12508746D02*
X9686849Y-12565888D01*
X9686849Y-12565888D02*
X9677325Y-12584936D01*
X9677325Y-12584936D02*
X9667801Y-12594460D01*
X9667801Y-12594460D02*
X9648754Y-12603984D01*
X9648754Y-12603984D02*
X9620182Y-12603984D01*
X9743992Y-12470650D02*
X9820182Y-12470650D01*
X9772563Y-12403984D02*
X9772563Y-12575412D01*
X9772563Y-12575412D02*
X9782087Y-12594460D01*
X9782087Y-12594460D02*
X9801134Y-12603984D01*
X9801134Y-12603984D02*
X9820182Y-12603984D01*
X10039230Y-12470650D02*
X10039230Y-12670650D01*
X10039230Y-12480174D02*
X10058277Y-12470650D01*
X10058277Y-12470650D02*
X10096373Y-12470650D01*
X10096373Y-12470650D02*
X10115420Y-12480174D01*
X10115420Y-12480174D02*
X10124944Y-12489698D01*
X10124944Y-12489698D02*
X10134468Y-12508746D01*
X10134468Y-12508746D02*
X10134468Y-12565888D01*
X10134468Y-12565888D02*
X10124944Y-12584936D01*
X10124944Y-12584936D02*
X10115420Y-12594460D01*
X10115420Y-12594460D02*
X10096373Y-12603984D01*
X10096373Y-12603984D02*
X10058277Y-12603984D01*
X10058277Y-12603984D02*
X10039230Y-12594460D01*
X10248754Y-12603984D02*
X10229706Y-12594460D01*
X10229706Y-12594460D02*
X10220182Y-12575412D01*
X10220182Y-12575412D02*
X10220182Y-12403984D01*
X10410658Y-12603984D02*
X10410658Y-12499222D01*
X10410658Y-12499222D02*
X10401135Y-12480174D01*
X10401135Y-12480174D02*
X10382087Y-12470650D01*
X10382087Y-12470650D02*
X10343992Y-12470650D01*
X10343992Y-12470650D02*
X10324944Y-12480174D01*
X10410658Y-12594460D02*
X10391611Y-12603984D01*
X10391611Y-12603984D02*
X10343992Y-12603984D01*
X10343992Y-12603984D02*
X10324944Y-12594460D01*
X10324944Y-12594460D02*
X10315420Y-12575412D01*
X10315420Y-12575412D02*
X10315420Y-12556365D01*
X10315420Y-12556365D02*
X10324944Y-12537317D01*
X10324944Y-12537317D02*
X10343992Y-12527793D01*
X10343992Y-12527793D02*
X10391611Y-12527793D01*
X10391611Y-12527793D02*
X10410658Y-12518269D01*
X10477325Y-12470650D02*
X10553515Y-12470650D01*
X10505896Y-12403984D02*
X10505896Y-12575412D01*
X10505896Y-12575412D02*
X10515420Y-12594460D01*
X10515420Y-12594460D02*
X10534468Y-12603984D01*
X10534468Y-12603984D02*
X10553515Y-12603984D01*
X10696373Y-12594460D02*
X10677325Y-12603984D01*
X10677325Y-12603984D02*
X10639230Y-12603984D01*
X10639230Y-12603984D02*
X10620182Y-12594460D01*
X10620182Y-12594460D02*
X10610658Y-12575412D01*
X10610658Y-12575412D02*
X10610658Y-12499222D01*
X10610658Y-12499222D02*
X10620182Y-12480174D01*
X10620182Y-12480174D02*
X10639230Y-12470650D01*
X10639230Y-12470650D02*
X10677325Y-12470650D01*
X10677325Y-12470650D02*
X10696373Y-12480174D01*
X10696373Y-12480174D02*
X10705896Y-12499222D01*
X10705896Y-12499222D02*
X10705896Y-12518269D01*
X10705896Y-12518269D02*
X10610658Y-12537317D01*
X10877325Y-12603984D02*
X10877325Y-12403984D01*
X10877325Y-12594460D02*
X10858277Y-12603984D01*
X10858277Y-12603984D02*
X10820182Y-12603984D01*
X10820182Y-12603984D02*
X10801135Y-12594460D01*
X10801135Y-12594460D02*
X10791611Y-12584936D01*
X10791611Y-12584936D02*
X10782087Y-12565888D01*
X10782087Y-12565888D02*
X10782087Y-12508746D01*
X10782087Y-12508746D02*
X10791611Y-12489698D01*
X10791611Y-12489698D02*
X10801135Y-12480174D01*
X10801135Y-12480174D02*
X10820182Y-12470650D01*
X10820182Y-12470650D02*
X10858277Y-12470650D01*
X10858277Y-12470650D02*
X10877325Y-12480174D01*
X10953516Y-12680174D02*
X10963039Y-12670650D01*
X10963039Y-12670650D02*
X10982087Y-12642079D01*
X10982087Y-12642079D02*
X10991611Y-12623031D01*
X10991611Y-12623031D02*
X11001135Y-12594460D01*
X11001135Y-12594460D02*
X11010658Y-12546841D01*
X11010658Y-12546841D02*
X11010658Y-12508746D01*
X11010658Y-12508746D02*
X11001135Y-12461127D01*
X11001135Y-12461127D02*
X10991611Y-12432555D01*
X10991611Y-12432555D02*
X10982087Y-12413508D01*
X10982087Y-12413508D02*
X10963039Y-12384936D01*
X10963039Y-12384936D02*
X10953516Y-12375412D01*
M02*
